<svg xmlns="http://www.w3.org/2000/svg" width="521" height="272">
    <path fill="#23356a"
        d="M245.2 130v-8.5h2.4v8.5Zm183.3-40.4v-5l1.2-.4Zm81.8 34a58.1 58.1 0 0 1-1.2-6L486.4 5.8l-44.6 21-6.6 31.2V44L417 48.2c-8.7 2-13 3-21.7 4.7l-6.3 1.3-6.4 1.1-8.4 1.5-7.5 1.2-9.2 1.3-12.7 1.7v2.8L344 61l-12.5 1.2-6.8.6-18.2 1.4-9 .4c-18 .8-36.5.8-54.6 0l-5.2-.2a538 538 0 0 1-22.1-1.5l-7.8-.6-5-.6-10.5-1.1-7.8-1-7-1-17-2.4.1.4a47.9 47.9 0 0 0-31-5.1V36.9l-63.3-18-1.3 6.6-1-7.5L1 .1v44.3l8.7 2.3V125l-8.7-.3V168h128.6v-1.6c4.3 1.6 9.1 2.4 14.3 2.4a41 41 0 0 0 17.3-3.6v1.4H176l22.5.2H351l13-.1h17.7l4.4-.1 24-.1v.9h110v-44l-9.8.4" />
    <path fill="#ae917a"
        d="m466 132.5-3.1.3v-.2l-7.7.3 1.7-8.5 8.2-1.2 1.2 7.4.3 1.8h-.7Zm-351.8-66 3.5.8a27 27 0 0 0-3.5 7Zm29.1 42.5c0-7 .1-12.3.3-16a282 282 0 0 1 .2 34.4c-.2-4-.4-9.9-.5-18.4Zm155.3 5.7a21509.5 21509.5 0 0 1-6 22h-6.2V115l4.5-.1 7.6-.2Zm207.2 15.9a35.1 35.1 0 0 1-3.3-11.8l-21-103.2-17.6 8.3-6 2.7-10.2 4.9-20.8 98-.3 1.1c-.8 3.7-1.8 3.7-2.3 3.8l-2.5.1V79.4l.7-.2 6-1.6V52.4l-10 2.3c-8.7 2-13 3-22 4.8l-6.3 1.3-6.4 1-8.6 1.6-7.5 1.2-9.3 1.3-7 1v24l6.6-.9-.2 46h-1a19 19 0 0 1-1.4-4.4A6503 6503 0 0 0 340.8 75l-1.7-6.7-6.9.7-6.9.6-7.2.6-2 .1-5.8.4-1.5 5.6-2.4 9.2V71l-8.5.4c-18.3.8-36.8.8-55.1 0H240l-2.7-.2c-9-.5-13.3-.8-22.3-1.5l-7.8-.7-5.1-.5-10.6-1.2-8-1-6.9-1-9.3-1.3v7c-2.3-2.9-5-5.4-8.1-7.4a40 40 0 0 0-29.1-5.3c-2.7.8-5 2-7.2 3.6v-20L71.6 27.3l-6.9 37.5-6.6-41.4L7.6 9v30.3l6.1 1.5a8 8 0 0 1 2.3 1c.2.2.4 1 .4 2.9v87.1H16l-8.4-.2v29.6H123v-6.7c1.8 1.7 3.7 3 5.9 4.2 4.3 2.2 9.3 3.3 15 3.3 5.4 0 10.4-1 14.7-3 3.5-1.7 6.6-4 9.2-7v7.9h8.1l22.5.1h40.2l-.1-45.3h3.8l7.6.2 4.4.1v21.7h-8.8v23.4h8.1a27796.7 27796.7 0 0 0 31.3 0h41l25-.1h13c6.2-.1 52.8.6 52.8.6h96.8v-30.4l-7.7.4" />
    <path fill="#23356a"
        d="M479.5 218v-56.2l-19.5-.1c-2.8-1.2-5.8-.5-9-.5-3.7 0-10.2-.3-16 5.4-4-2.8-9.6-5.2-17.6-5.2l-22.3-.1-21.9-.1h-11.5l-20.4-.2H190.5l-45.8 1.6a27 27 0 0 0-8.2-1.2c-5 0-9.7-.1-13.8 2.4-1.2.7-2.3 1.6-3.3 2.5-4.8-3.3-10.8-5-17.7-5l-22.1.2-25.2.2-14.6.1V222l10.4-1.3v11l-4.6 1.4V272l19.2-6.3a557 557 0 0 1 17-5.2l8.9-2.6c6.1-1.7 9.1-2.5 15.2-4l3.1-.8a22.9 22.9 0 0 0 18-5.6c3.7 1.1 7.8 1.3 12 .4a28.5 28.5 0 0 0 14.8-8 25 25 0 0 0 16 2.4c3.2-.5 6.1-1.4 8.8-2.6l14.1-1.6 17.2-1.6 11.7-1 11.5-.5c6-.3 8.8-.4 14.7-.5h2.6l14.7-.1h9.6a32.1 32.1 0 0 0 17 .7l9.2.6 11.6.9 7.9.7 11.8 1.2 8.7 1.1 17.2 2.5 9 1.5c11.3 2 16.9 3 28.2 5.6l4.3 1c6.2 1.3 9.2 2 15.3 3.6l3.4.9a23.3 23.3 0 0 0 15.7 4.2l2.5.8 3.2.9 2.8.8a27 27 0 0 0 8 4.3 21.5 21.5 0 0 0 25.1-9 40 40 0 0 0 5.7-22.7 67 67 0 0 0-1.8-16" />
    <path fill="#ae917a"
        d="M398.5 203.8v-1h.3v1Zm-33.3 11.8-2-.4-.2-12.4 2.4.1.1 12.7ZM338 212v-10.8l2 .1v10.9Zm133.6 5a41 41 0 0 0-2.4-5.4l3 .3v-43h-13.8a15.8 15.8 0 0 0-7.3-1.8c-4 0-9.8 1.5-14.2 9a27 27 0 0 0-1.1 1.9c-.6-.9-1.1-1.7-1.8-2.5a20.8 20.8 0 0 0-16.7-6.9l-22.2-.1-21.9-.1h-11.5l-20.5-.1h-11.9l-14.7-.1h-89.5V180l.1 7.5h3.4v21l-3.6.2v19.2l7.7-.3 15-.5h2.5c6-.2 9-.2 15-.1h7.4v-1.6a21 21 0 0 0 10.8 3 20 20 0 0 0 11.1-2.3v1.7l7 .5 11.6.9 8 .7 3 .3 9 1 8.8 1 17.4 2.6 9 1.5c11.5 2 17.1 3 28.6 5.6l4.3 1c6.2 1.4 9.3 2.1 15.5 3.7l5 1.2c1.7 1.5 3.7 2.6 6.1 3.3 2.3.6 4.6.7 6.6.2l4.1 1.2 3.3 1 4.1 1.2a20 20 0 0 0 6.9 3.9c6.6 2 12.8-.2 16.7-6a33 33 0 0 0 4.5-18.7c0-6.3-.8-12-2.4-16.7Zm-283.2-5.6-1.7.2v-10.5l1.8-.1ZM82.9 230.3l-2.4.6v-19.6l2.4.4Zm107.6-62-45 .2v1a18.9 18.9 0 0 0-9-2.2 18.2 18.2 0 0 0-16.5 10c-.5-.9-1.1-1.7-1.8-2.4a21.5 21.5 0 0 0-16.4-6.2H91l-11.5.2-25.1.1-7.3.1v44.6l10.3-1.3v24.9l-4.6 1.3v23.2l9.7-3.1 17.2-5.4 9-2.5 15.3-4.1 4.7-1.2c2 .5 4.2.5 6.5-.1 4.2-1 7.5-3.4 9.7-6.9a16.9 16.9 0 0 0 12.6 2.1c3.4-.7 6.4-2 9-4.2 2.4-1.9 4.4-4.3 6-7.1l.4.5c2.4 3 7.1 6.4 15.7 5.1a19.6 19.6 0 0 0 15-9.7v6.4l8.2-.9 17.4-1.6 6.8-.6v-19.3l-4.6.3v-9.3l10.5-.3.2-31.6h-31.7" />
    <path fill="#fff"
        d="m322 175.7.1 4.7c1.2 0 2 .3 2.5.9.5.5.8 1.3.8 2.5l.1 25.4c-4.1-13.7-6.2-20.4-10.3-33.5h-13.5v4.5c1.3 0 2.2.2 2.7.7.6.5.8 1.3.8 2.6l.2 29.8c0 1.2-.3 2-.8 2.6-.5.4-1.4.6-2.7.5v4.5l11.9.9v-4.6c-1.3-.1-2.1-.5-2.6-1s-.8-1.4-.8-2.6l-.1-27.8a2902 2902 0 0 1 11.5 36.7l8.9 1-.3-39.6c0-1.2.2-2.1.7-2.6.5-.5 1.5-.8 2.8-.8v-4.7H322Zm14.7 0 .1 18.2c1.6 0 2.4 0 4 .2v-5.4c0-3 .3-5.2 1-6.5.9-1.3 2.2-2 4-2h1.4l.2 36.8c0 1.3-.2 2.2-.8 2.7-.6.5-1.6.6-3 .4h-.8v4.8c7 1 10.6 1.4 17.6 2.6v-5.1l-.8-.2c-1.4-.2-2.4-.6-3-1.2-.6-.6-.9-1.6-.9-3l-.2-37.6h1.3c1.8 0 3.1.8 4 2.2a15 15 0 0 1 1.2 7v5.7l4 .2c0-7.8 0-11.8-.2-19.6l-29.1-.1Zm127.9 43.8a50.6 50.6 0 0 0-10.9-17.3c-4.5-5.6-6.7-9.7-6.8-12.9 0-2 .5-3.7 1.4-5a4 4 0 0 1 3.5-1.8c2.5 0 4.6 1.9 6.1 5.4 1.5 3.5 2.5 8.7 3 15.3l3.8.5v-27.3h-3.4l-1.3 4.3c-1.2-2-2.5-3.6-4-4.6a8.6 8.6 0 0 0-5-1.5c-3 0-5.7 1.8-7.8 5.4a29 29 0 0 0 1 28.2c.8 1.3 2.4 3.5 4.7 6.5 2.4 3 4.1 5.4 5.2 7 1.8 2.6 3.2 5.2 4 7.6.9 2.3 1.3 4.7 1.3 7 0 2.6-.5 4.5-1.4 5.8-1 1.2-2.2 1.6-3.7 1.1-2.8-.7-5-3.5-6.6-8a61.7 61.7 0 0 1-3.1-18.2l-4.1-.7v29.1l3.4 1 1.7-4.2a22 22 0 0 0 4.2 6c1.6 1.6 3.4 2.7 5.2 3.3 3.5 1.1 6.2.1 8.4-3 2.1-3.3 3.2-8.2 3.2-14.6 0-5.5-.7-10.3-2-14.4Zm-178.2-43.8v4.4c1.2 0 2 .3 2.6.8.5.5.7 1.3.7 2.4v25.1c0 3.2-.2 5.3-.9 6.1-.6.9-1.9 1.3-3.6 1.2-1.8 0-3-.5-3.7-1.4-.7-1-1-3-1-6.2v-24.9c0-1.1.2-1.9.6-2.4.5-.4 1.3-.7 2.5-.8v-4.3h-15v4.3c1.3 0 2.2.2 2.7.7.6.5.8 1.3.8 2.5V207c0 4.9 1 8.4 2.8 10.6 1.8 2.1 4.7 3.3 8.8 3.4 4.1.2 7-.7 8.9-2.8 1.8-2 2.7-5.6 2.7-10.6l-.1-24.3c0-1.1.2-2 .7-2.4.5-.5 1.4-.7 2.8-.8v-4.4h-12.3Zm108 36c0 6.5-.8 10.7-2.3 12.7-1.4 1.9-4.2 2.4-8.5 1.7l-2.2-.4-.2-20.3.9.1c2 .2 3.3 1 4.1 2.2.8 1.3 1.3 3.4 1.3 6.3v.4l3.7.5-.2-22.5c-1.5 0-2.2 0-3.7-.2v.4c0 3-.3 5-1.1 6-.8 1.1-2.2 1.6-4.1 1.4h-1v-18.6h1.5c4.2.1 7 1.1 8.6 3 1.4 1.9 2.3 5.4 2.5 10.6l4 .3-.2-19.3-28.4-.1v5.2c1.4 0 2.3.4 2.8 1 .5.5.8 1.5.8 3l.3 35.3c0 1.4-.3 2.4-.8 2.9s-1.4.6-2.7.4v5.3a545 545 0 0 1 29 5.7l-.2-22.5-3.9-.5Zm22.4-8.2-2.3-.3v-21l2.3.1c2.7.1 4.6 1 5.6 2.5 1 1.6 1.5 4.4 1.5 8.5 0 4-.5 6.7-1.6 8.3-1 1.5-3 2.2-5.5 1.9Zm17.1 25.3v4.7c0 1.2-.1 2-.4 2.7-.3.7-.8 1-1.3.8-1-.2-1.7-3-1.9-8v-2.7a39 39 0 0 0-2-12.1 9.6 9.6 0 0 0-5.1-5 8 8 0 0 0 6.5-4.4 23 23 0 0 0 2.2-11.2c0-6-1.2-10.4-3.6-13.2-2.3-2.9-6-4.3-11-4.3h-14.8v5.8c1.3 0 2.2.4 2.8 1 .5.7.8 1.9.8 3.5l.2 39.7c0 1.6-.2 2.7-.7 3.2-.6.6-1.5.7-2.7.5v5.9a551 551 0 0 1 15.6 3.7v-6.3h-.3a4.5 4.5 0 0 1-2.7-1.6 7 7 0 0 1-.8-3.8l-.1-17.8a5.6 5.6 0 0 1 1.3.1c2.2.3 3.7 1.3 4.6 2.9a19 19 0 0 1 1.6 8.3l.1 4a44 44 0 0 0 1.6 12.8c.6 1.7 1.4 3 2.3 4a10 10 0 0 0 3.7 2c2.4.6 4.2 0 5.3-1.7a21 21 0 0 0 1.6-10v-2.9l-2.8-.6Zm-171.4-14.3c-.5-.5-.8-1.3-.8-2.5v-28.8c0-1.2.2-2 .7-2.4.5-.5 1.5-.8 2.8-.8v-4.3h-15v4.3c1.1 0 2 .3 2.4.8.5.5.7 1.3.7 2.4v11.2h-9l.1-11.2c0-1.1.2-2 .7-2.4.5-.5 1.3-.7 2.5-.8v-4.3h-15v4.4c1.2 0 2.1.2 2.6.7.6.4.8 1.3.8 2.5v29.1c0 1.2-.3 2-.8 2.5-.6.5-1.5.8-2.8.9v4.4c6-.3 9-.4 15.1-.5v-4.4c-1.1 0-2-.3-2.4-.7-.5-.5-.7-1.3-.7-2.4v-13l9-.2-.1 13c0 1.2-.2 2-.7 2.4-.5.5-1.3.8-2.5.9v4.3h15.1v-4.4c-1.3 0-2.2-.2-2.7-.7Zm-121.7-11c0 10-.4 16.3-1.1 19-.7 2.5-1.8 4-3.6 4.3-1.7.3-2.9-.7-3.5-3.2-.6-2.4-.8-8.8-.8-19.2.1-10.2.5-16.7 1.1-19.3.7-2.5 1.8-3.8 3.6-3.9 1.7 0 2.8 1.2 3.5 3.7.6 2.5.9 8.7.8 18.6Zm5.9-22.8c-1.1-2-2.5-3.5-4.2-4.5-1.7-1-3.7-1.5-6-1.5s-4.2.5-6 1.6a13 13 0 0 0-4.2 4.9c-1 2-1.8 5-2.3 8.7a134 134 0 0 0-.8 15.5c0 6.6.2 11.7.6 15.3.4 3.6 1.2 6.4 2.2 8.2a8.9 8.9 0 0 0 10.1 4.5c2.3-.5 4.2-1.4 6-2.8a18 18 0 0 0 4.3-5.4c1-2 1.8-4.7 2.3-8 .4-3.5.7-8.3.7-14.5 0-6.2-.1-11-.5-14.3-.5-3.3-1.2-5.8-2.2-7.7ZM101 204l-2.3.2.1-21.6h2.4c2.7-.2 4.6.6 5.6 2 1 1.5 1.4 4.1 1.4 8a16 16 0 0 1-1.7 8.3 7 7 0 0 1-5.5 3Zm16.9 23c0 1-.2 1.9-.5 2.6-.3.7-.8 1.1-1.3 1.2-1 .3-1.6-2-1.8-6.5l-.1-2.4a29 29 0 0 0-1.9-10.5c-1-1.9-2.7-3-5-3.4 2.8-1 5-2.8 6.6-5.7a22 22 0 0 0 2.3-10.5c0-5.3-1.1-9.2-3.4-11.8-2.4-2.5-6-3.8-11-3.8l-14.8.1v6.7c1.2 0 2.1.3 2.7 1 .5.6.7 1.9.7 3.7l-.1 43.7c0 1.8-.3 3-.8 4-.6.8-1.5 1.4-2.7 1.7v6.7c6.2-1.8 9.3-2.6 15.5-4.2v-6.3h-.2c-1.3.4-2.2.3-2.8-.3-.5-.6-.7-1.8-.7-3.5V211a6.2 6.2 0 0 1 1.4-.2c2.2-.3 3.7.2 4.6 1.5 1 1.3 1.4 3.8 1.5 7.6v3.8c.1 5.9.6 9.8 1.5 11.8a4.8 4.8 0 0 0 2.3 2.6c1 .4 2.2.4 3.7 0a7.5 7.5 0 0 0 5.3-4 21 21 0 0 0 1.7-9.4v-2.5l-2.7.5v4.1Zm-63.3-21.6 3.9-.5v-8.3c0-4.8.4-8.2 1.2-10.3.8-2 2-3.1 3.9-3.2H65l-.1 54.5a9 9 0 0 1-.8 4.4c-.6 1-1.6 1.6-3 2l-.8.3v7.4l17.4-5.4v-6.9l-.7.2c-1.5.4-2.5.3-3-.3-.6-.6-.9-2-.9-3.8l.2-52.7h1.3c1.8-.1 3.1.8 4 2.7.7 2 1.1 5 1.1 9.2v7.6l3.9-.4v-25.6l-29 .2v28.9Zm116.2-24.5c1.2 0 2 .3 2.5.8.5.6.7 1.5.7 2.7l-.2 28c0 3.6-.4 6-1 7-.7 1-1.9 1.7-3.7 2-1.8.2-3-.1-3.6-1-.7-1-1-3.3-1-7l.3-28.7c0-1.3.2-2.3.7-2.8.4-.6 1.3-.9 2.4-1l.1-5h-15l-.1 5.3c1.3 0 2.2.2 2.8.8.5.6.8 1.5.8 3l-.2 28.2c0 5.9.8 10 2.5 12.2 1.8 2.2 4.7 3 8.8 2.3 4.1-.6 7-2.2 8.9-4.8 1.8-2.6 2.8-6.7 2.8-12.1l.2-26.5c0-1.3.2-2.2.7-2.7.5-.6 1.5-.9 2.8-1v-4.7h-12.2v5Zm14.7 13c1.5 0 2.3 0 4-.2v-5.2c0-3 .4-5.1 1.2-6.4.8-1.3 2.1-2 3.9-2h1.4l-.2 34.8c0 1.2-.3 2.2-.9 2.7-.6.6-1.6 1-3 1l-.8.2v4.7c7-.8 10.5-1.1 17.6-1.7V217h-.7c-1.5.2-2.5 0-3-.4-.6-.5-1-1.3-1-2.6l.3-34.2h1.4c1.8 0 3 .6 3.9 1.8.8 1.3 1.2 3.3 1.2 6.1v5h3.9v-17.1h-29.1l-.1 18.1" />
    <path fill="#fff"
        d="M417.2 200.8c2.2.3 2.7-.5 3-.7.3-.7 1-2.4 1-6.8 0-4.6-.7-6.4-1-7-.5-.8-1.5-1.2-3.1-1.3Zm.7 5.4h-1.4l-4.6-.6-.2-26h5.2c3.6.2 6.3 1.4 7.7 3.8 1.3 2 2 5.3 2 9.8 0 4.6-.7 7.8-2.1 9.9-1 1.5-3 3.1-6.6 3.1Zm-316.4-21.1-.1 16c2-.4 2.6-1.4 2.9-1.7.5-1 1.2-2.9 1.2-7 0-4.4-.6-6-1-6.4-.5-.8-1.8-1-3-1ZM96 207l.2-27.2 5-.1c3.6-.2 6.3 1 7.8 3.2 1.3 2 1.9 5 1.9 9.5 0 4.3-.7 7.5-2.1 9.7a9.7 9.7 0 0 1-7.5 4.3Zm40.6-23.2c-.6 0-1 1.7-1.1 1.9-.4 1.6-1 6.2-1 18.7s.3 17 .7 18.5l.5 1.2c.8-.3 1.3-1.8 1.4-2.4.4-1.7 1-6.2 1-18.3.1-12-.3-16.4-.7-18-.4-1.3-.8-1.6-.8-1.6Zm-1 45.6c-1.6 0-4.4-.7-5.6-5.2-.4-1.8-1-5.7-.8-19.9 0-10.6.4-17.1 1.1-20 1.3-5 4.4-5.8 6.1-5.8 1.8 0 4.9.6 6.2 5.6.4 1.8 1 5.6.9 19.3a108 108 0 0 1-1.2 19.6c-1.2 4.6-3.7 6-5.7 6.3l-1 .1Zm203.8-51v2.7a6.8 6.8 0 0 1 2.6-2.8h-2.6Zm-34-.1a4.7 4.7 0 0 1 2.2 2.8v-2.8Zm54.8.1a6.8 6.8 0 0 1 3 3v-3h-3Zm-35-.1a4.9 4.9 0 0 1 2.7 3.8 4.8 4.8 0 0 1 2.9-3.7Zm-74.6 4Zm32.6 0Zm14.7.2Zm-51 .2Zm4 0Zm32 0Zm4.3 0Zm10.4.1Zm25 0Zm-2.3 0 2.4 8V183h-.8Zm-73.2-.2v9.1h3.5v-9.1h-.6l-1.5-.1h-.7l-.7.1Zm212.8 3.1.4 1a31 31 0 0 1 1.8 5.4V183l-1.4 4.3Zm-76.2-1.7.1 13.1.2-.1c.1-.2.7-1.2.7-4.5v-3.2l5.8.3c-.5-2.1-1-3.2-1.4-3.7-.9-1-2.7-1.7-5.4-1.9Zm68 1c-.4 0-.8.2-1.2.8-.6.8-.9 2-.9 3.4 0 2.4 2.1 6.2 6.2 11.2l2.4 3v-.1a44.8 44.8 0 0 0-2.7-14.4c-1.7-3.8-3.2-3.8-3.7-3.8h-.1ZM290 178.4l.9.7c1 1 1.5 2.4 1.5 4.3v25.1l-.1 3.7c.2-1.2.3-2.7.3-4.5l-.1-24.2c0-2 .5-3.4 1.6-4.4l.8-.7Zm-43 34.3h.6l1.3.1h1l.7-.2v-10.8H247v10.9Zm17.4.1Zm19.3 0s.4.3 1.6.3l1.4-.1c.1-.3.4-1.4.4-4.5v-25.1l-.1-.5h-.7l-1.3-.2-1.3.1h-.6v25.5c0 3.5.5 4.5.6 4.5Zm-50.5.5Zm69.4.9Zm-46.6-17v15c0 1.8-.5 3.3-1.5 4.2l-.7.6h7.4l-.5-.4c-1.1-1-1.7-2.5-1.7-4.5v-28.8c0-2 .6-3.4 1.6-4.4l.6-.5h-7.4l.7.6c1 1 1.5 2.4 1.5 4.3Zm-19.6-18.8.6.5c1.1 1 1.7 2.5 1.7 4.5v29.1c0 2-.6 3.5-1.7 4.5a5 5 0 0 1-.6.4l7.6-.2-.8-.6c-1-1-1.5-2.4-1.5-4.3v-29a6 6 0 0 1 1.5-4.3l.8-.6Zm36.2 0 .5.4c1.1 1 1.7 2.5 1.7 4.5V207c0 4.3.8 7.3 2.1 9 1.3 1.5 3.6 2.3 7 2.5a17.7 17.7 0 0 0 1.2 0c-2.7-.1-4.6-1-5.8-2.6-1-1.4-1.5-3.8-1.5-7.7v-24.9c0-1.8.5-3.3 1.4-4.2l.8-.7Zm32.9 40.2c1.6 0 3 .2 4.7.3a5 5 0 0 1-1-.8 5.5 5.5 0 0 1-1.3-2.9c-.3 1.2-.8 2-1.5 2.8l-1 .6Zm18.3 1.5 2.3.3L323 210l-9.7-31.5h-2.6l2.1 6.6 11 35Zm60.2 3.4c1.9.4 5 .7 6-.7.4-.4 1-1.7 1.4-5l-.6-.2a895 895 0 0 0-3.7-.5l-2.3-.3V214c0-3.2-.6-4.5-.8-4.8v-.1Zm-37.6-.7 10.2 1.5c-.8-.4-1.4-.8-2-1.4a7 7 0 0 1-1.5-4.8l-.3-39.5h-3l.3 38.5c0 2.1-.6 3.7-1.8 4.7-.5.5-1.2.8-2 1Zm54.7 4 2.3.4h.2v-1l-.2-39.7c0-1-.1-1.5-.2-1.7l-.7-.1h-2.3l.1 13.6-6.6-.5V209l1 .1 4 .6 2.3.3Zm-29 0 6.6 1.2-.2-25.5 3.9.5c3.4.3 5.1 2 6 3.3v-6c-1 1.3-2.9 2.8-6.6 2.5l-3.3-.3-.1-23.7h4.3c5 .2 8.5 1.5 10.5 4 .7.9 1.3 1.9 1.7 3.1v-7.1l-23-.2v.4a5 5 0 0 1 2 1.3c1 1.1 1.5 2.7 1.5 4.9l.2 35.2c0 2.3-.5 3.9-1.6 5-.5.4-1.1.7-1.8 1Zm45.2-13.5v14.5c0 1.7.4 2.2.4 2.3l1 .5 1.1.2a94.2 94.2 0 0 1-.3-9.5 16 16 0 0 0-1.3-7c-.2-.3-.4-.7-1-1Zm-36.3 15 14.7 3v-8.2a10 10 0 0 1-1.5 2.9c-2.1 2.7-5.8 3.6-11.1 2.7Zm24.4 5.2 10.3 2.5v-1a6 6 0 0 1-2.6-2c-.8-1.3-1.2-3-1.2-5.2l-.1-20.4h.8l10.3-1c1.9 0 3.3-1 4.4-3a21 21 0 0 0 1.9-9.8c0-5.3-1-9.2-3-11.5-1.8-2.2-4.8-3.3-9-3.3h-12.1v1a4 4 0 0 1 2.1 1.5c1 1.1 1.4 2.8 1.4 5l.3 39.7c0 2.5-.5 4.1-1.5 5.2-.5.4-1 .9-2 1.1Zm41.8-16.6a58 58 0 0 0 2.9 17.4c1 2.5 2.5 5.7 4.8 6.4.6.1.7 0 .9-.2.3-.5.8-1.6.8-4.1 0-2-.3-4.2-1-6.2-.9-2.2-2.1-4.6-3.8-7-1.1-1.7-2.8-3.9-4.6-6.3Zm-4.1 12v12l2-4.8c-.8-2.1-1.5-4.5-2-7.2Zm-20-16.8c1 2 1.5 5 1.6 9v4c.2 7.1 1 10.5 1.5 12a8 8 0 0 0 1.7 3 6 6 0 0 0 2.5 1.3c1.7.5 2 0 2.3-.5l.5-1.3c-.6.2-1.2.1-1.7 0-3-.7-3.7-4.6-4-10.6v-2.6c-.4-6.7-1.2-9.8-1.8-11.2a6.6 6.6 0 0 0-2.7-3Zm25.8 30.7a18 18 0 0 0 2.7 3.5c1.3 1.3 2.7 2.2 4.2 2.7 2.3.7 3.8.1 5.3-2a24 24 0 0 0 2.7-13 43 43 0 0 0-1.9-13.6 48.3 48.3 0 0 0-10.3-16.6c-5.1-6.2-7.4-10.7-7.4-14.5 0-2.6.6-4.8 1.8-6.5 1.5-2 3.4-3 5.8-3 2.8.1 5.1 1.5 7 4.2l-1.2-2a11 11 0 0 0-3.2-3.7c-1.1-.7-2.2-1-3.4-1-.8 0-3.2 0-5.6 4-2 3.2-2.9 7-2.8 11.7a26.4 26.4 0 0 0 3.8 13.8c1 1.6 3 4.3 4.5 6.3 2.8 3.4 4.4 5.8 5.3 7 2 2.9 3.4 5.6 4.3 8.2a23 23 0 0 1 1.5 8c0 3.2-.7 5.6-2 7.4a5.9 5.9 0 0 1-6.6 2.1 9.8 9.8 0 0 1-4.5-3Zm8.6 11.8a14 14 0 0 1-3.4-.5 16 16 0 0 1-6.3-4l-1.8-2-.7 1.5-2.3-.7-3.3-1-1.9-.5v-4.9a9 9 0 0 1-.5 1.1c-1 1.7-3.4 4.3-8.3 3-2-.6-3.6-1.5-4.8-2.8a13.2 13.2 0 0 1-3.1-5.2v4.2l-3.4-.8a547 547 0 0 0-15.5-3.7l-4.4-1a539.2 539.2 0 0 0-28.8-5.7l-2.2-.4-.1-10.6 3.1.5h.4v-.7L370 185v-1.2l-.9-.1h-.5v14.6l-9.2-.6v-8.2c0-3.6-.6-5-1-5.7l-.3-.4.3 34.5c0 .9.2 1.2.2 1.2s.3.3 1.4.4l3 .4.1 10.6-3-.5a534 534 0 0 0-17.6-2.5l-2.3-.3V217l3.7.4h.8v-.5l-.2-33.8c-.2 0-.3.2-.3.3-.3.5-.8 1.9-.8 5.2v8.2l-9.2-.5-.1-13.3a5 5 0 0 0-1 .1v.7l.2 42.5-3-.3-2-.2v1.7l-.5-1.8-6.3-.6-1.7-.2-.6-1.7-6.2-20 .1 10.3v.8l1 .2 2.3.3v9.8l-2.9-.3-11.8-.8-2.5-.2v-9.8l2.8.2h.7v-.5l-.1-29.8v-.6h-.9l-2.6-.1h-1.3v.5l.1 24.3c0 5.7-1 9.8-3.3 12.3-2.3 2.7-6 4-11 3.8-4.9-.2-8.5-1.7-10.8-4.4-2.2-2.7-3.3-6.7-3.3-12.3v-24.3h-5.2v29.8h3.6v9.7h-2.7l-15 .1h-2.6l-15 .5-2.9.2v-9.8l2.6-.1 1-.1v-30.1H230V173h87.2l.6 2 1.6 5.2V173h17.3l29.2.2h3.2l28.4.1 19.9.1c5.7 0 10.1 1.8 13 5.3 2.7 3.3 4.2 8.3 4.2 14.9 0 5.2-.9 9.4-2.6 12.5-.9 1.6-2 2.9-3.3 3.8.8 1 1.4 2 2 3.2 1 2.6 1.8 6.8 2.2 12.7l5 1.1v-13.7l3 .5 4.2.7h.3a34.6 34.6 0 0 1-7-13 31.7 31.7 0 0 1 2.5-22.8c3.3-5.5 7.4-6.7 10.2-6.7a11.2 11.2 0 0 1 7.8 3.2l.4-1.4h8v33l-7.3-1a45.3 45.3 0 0 1 9.3 28.2 29 29 0 0 1-3.7 16 9.5 9.5 0 0 1-8 4.7ZM210 178.4a6.6 6.6 0 0 1 2 2.3v-2.3h-2Zm-21.8 0v2.5l.2-.3c.5-.8 1.1-1.6 2.1-2.2h-2.3Zm-6.2 5Zm-14.6.2Zm6-5c.8.3 1.4.7 1.9 1.3 1 1 1.4 2.5 1.4 4.4l-.2 28a51.8 51.8 0 0 1 .1-1.7l.2-26.5c0-2 .5-3.4 1.5-4.5.5-.5 1-.9 1.8-1.2h-6.6Zm33 35.9Zm-38.8 4.1h1.2c.9 0 1.5-.3 1.7-.7 0 0 .6-1.1.6-5.6l.2-28v-.8h-.6l-1.3-.1H168l-.6.2v1l-.3 28.8c0 3.5.3 4.8.4 5.2Zm31-40.2-.2 36.4c0 2-.5 3.5-1.6 4.6l-1 .8 8.5-.8-1-.6c-1.3-1-1.9-2.6-1.9-4.7l.2-35.7h-3Zm-43 .4a5 5 0 0 1 2 1.3c1 1 1.5 2.6 1.5 4.7l-.2 28.3c0 6.5 1 9.3 2 10.5.4.5 1.7 2 6.3 1.4 2.3-.4 4-1 5.4-2-.9.4-2 .8-3.1 1-3.6.4-5.4-1-6.2-2.2-.7-1-1.5-2.9-1.4-8.5l.2-28.8c0-2 .5-3.4 1.3-4.4a5 5 0 0 1 1.9-1.4v-.2h-9.7Zm-54.3 34.5v17.4h.2l2.3-.5a76.4 76.4 0 0 1-.3-10.3c-.1-4.4-.8-5.8-1-6-.1-.2-.4-.5-1.2-.6Zm35.2-36a8 8 0 0 0-4.5 1.2 9.7 9.7 0 0 0-3.3 4c-1 1.7-1.6 4.3-2 7.7-.5 3.6-.8 8.7-.8 15.2s.1 11.5.5 15c.4 3.3 1 5.7 2 7.2a6.6 6.6 0 0 0 2.9 3 7 7 0 0 0 4.3.1c1.8-.3 3.4-1 4.8-2.2a14 14 0 0 0 3.6-4.5c1-1.8 1.6-4.2 2-7.3a124.5 124.5 0 0 0 .2-28c-.4-2.9-1-5.2-1.8-6.7-1-1.5-2-2.7-3.3-3.5a8.7 8.7 0 0 0-4.6-1.1Zm-35 54Zm5.1-20.8.2.3c1.3 1.8 1.9 4.7 2 9v3.9c.1 7.2.8 9.8 1.3 10.7.3.7.6 1.1 1 1.3.1 0 .6.2 1.9-.1 1.5-.4 2.5-1 3.3-2.2a4 4 0 0 1-2.4-.7c-1.4-1.2-2-3.5-2.3-8.4v-2.4c-.4-6.1-1.2-8.5-1.7-9.4-.6-1.1-1.5-1.7-3-2Zm-30.6 27Zm13.4 1.3v1.3l10.2-2.7V236c-1-.3-1.8-.8-2.2-1.3-1-1.2-1.5-2.8-1.5-5.3L96 209l.5-.2h-.4l10.4-3.5a9 9 0 0 0 5-4.4c1.4-2.4 2-5.6 2-9.3 0-4.6-.8-8-2.7-10-1.8-2-4.9-3-9-3l-12.2.2v1.7c1 .4 1.7 1 2.2 1.6.9 1.2 1.3 3 1.3 5.4l-.2 43.7c0 2.3-.4 4-1.2 5.3a5 5 0 0 1-2.3 2.2ZM63 246v1.9c4.3-1.4 7.4-2.4 12-3.7v-2a4.4 4.4 0 0 1-3-1.3c-1-1.2-1.5-3-1.5-5.7V180l4-.1c3-.1 5.3 1.4 6.5 4.4v-5.5l-23.8.2v6.1c1.6-4 4.6-4.8 6.3-4.8l4.1-.2v57.3c0 2.5-.4 4.3-1.2 5.7a7 7 0 0 1-3.4 3Zm-5.4 9.2v-13.1l2.7-.8c.5-.2 1.2-.4 1.4-.9.2-.2.5-1 .5-3v-50.6.3a28 28 0 0 0-1 9.3V207l-9.3 1.2v-34.5h2.6l29.2-.2 18.1-.1c5.7 0 10 1.5 13 4.6 2.8 3.1 4.1 7.5 4 13.6 0 4.7-.8 8.6-2.6 11.8-.9 1.7-2 3-3.3 4.2a9 9 0 0 1 1.8 2.3c1 2.1 1.7 5.4 2 10.2l4.3-.8a135 135 0 0 1-.5-14c0-6.7.3-12 .8-15.9.6-4 1.4-7.2 2.7-9.5a15 15 0 0 1 5.1-6c2.2-1.3 4.6-2 7.4-2 2.8 0 5.2.7 7.3 2 2.1 1.2 3.9 3 5.2 5.4.5.8.9 1.7 1.2 2.7v-8.9l35.5-.1h31.7v22.2l-9.3.3v-7.8c0-3-.5-4.2-.8-4.6 0-.2-.1-.3-.4-.4l-.1 31.3v.4h1l3.5-.2v9.8l-2.4.2-17.5 1.7-3 .4v-10.2l3.2-.3c.9 0 1.3-.2 1.4-.3l.1-.8.2-31.8c-.2.1-.3.3-.3.4-.3.5-.9 1.8-.9 5v7.8l-9.3.4v-13.4a4 4 0 0 0-.6.1v.9l-.2 26.5c0 6-1.2 10.5-3.3 13.6a15 15 0 0 1-10.7 6c-5.1.7-8.9-.4-11.3-3.4-2.1-2.7-3.2-7.3-3.1-13.8l.2-28.3v-1a4 4 0 0 0-.9 0h-2.2l.8 4.3c.5 3.5.6 8.3.6 14.6 0 6.4-.3 11.2-.8 14.8a28 28 0 0 1-2.6 9 17.4 17.4 0 0 1-12 9.5c-2.9.5-5.4.4-7.6-.6a11.9 11.9 0 0 1-6-6.4c-.3 2.6-1 4.7-1.8 6.4a10.5 10.5 0 0 1-7 5.4 8 8 0 0 1-5.4-.3 7.4 7.4 0 0 1-4-4.4v5.5l-2 .5-15.5 4.1-3.4 1v-12.3l2.1-.5c.3 0 .9-.3 1-.6.2 0 .5-.7.5-2.6l.2-43.6c0-1.2-.2-1.8-.2-2h-1.3v18.6l-9.3 1v-10.6a22.3 22.3 0 0 0-1-8.5l-.2 49.3.1 1.6h.4l4-1.2v12.4l-1.9.6c-7 2-10.3 3.1-17.3 5.4l-3.5 1" />
    <path fill="#23356a"
        d="m322 175.7.1 4.7c1.2 0 2 .3 2.5.9.5.5.8 1.3.8 2.5l.1 25.4c-4.1-13.7-6.2-20.4-10.3-33.5h-13.5v4.5c1.3 0 2.2.2 2.7.7.6.5.8 1.3.8 2.6l.2 29.8c0 1.2-.3 2-.8 2.6-.5.4-1.4.6-2.7.5v4.5l11.9.9v-4.6c-1.3-.1-2.1-.5-2.6-1s-.8-1.4-.8-2.6l-.1-27.8a2902 2902 0 0 1 11.5 36.7l8.9 1-.3-39.6c0-1.2.2-2.1.7-2.6.5-.5 1.5-.8 2.8-.8v-4.7H322Zm14.7 0 .1 18.2c1.6 0 2.4 0 4 .2v-5.4c0-3 .3-5.2 1-6.5.9-1.3 2.2-2 4-2h1.4l.2 36.8c0 1.3-.2 2.2-.8 2.7-.6.5-1.6.6-3 .4h-.8v4.8c7 1 10.6 1.4 17.6 2.6v-5.1l-.8-.2c-1.4-.2-2.4-.6-3-1.2-.6-.6-.9-1.6-.9-3l-.2-37.6h1.3c1.8 0 3.1.8 4 2.2a15 15 0 0 1 1.2 7v5.7l4 .2c0-7.8 0-11.8-.2-19.6l-29.1-.1Zm127.9 43.8a50.6 50.6 0 0 0-10.9-17.3c-4.5-5.6-6.7-9.7-6.8-12.9 0-2 .5-3.7 1.4-5a4 4 0 0 1 3.5-1.8c2.5 0 4.6 1.9 6.1 5.4 1.5 3.5 2.5 8.7 3 15.3l3.8.5v-27.3h-3.4l-1.3 4.3c-1.2-2-2.5-3.6-4-4.6a8.6 8.6 0 0 0-5-1.5c-3 0-5.7 1.8-7.8 5.4a29 29 0 0 0 1 28.2c.8 1.3 2.4 3.5 4.7 6.5 2.4 3 4.1 5.4 5.2 7 1.8 2.6 3.2 5.2 4 7.6.9 2.3 1.3 4.7 1.3 7 0 2.6-.5 4.5-1.4 5.8-1 1.2-2.2 1.6-3.7 1.1-2.8-.7-5-3.5-6.6-8a61.7 61.7 0 0 1-3.1-18.2l-4.1-.7v29.1l3.4 1 1.7-4.2a22 22 0 0 0 4.2 6c1.6 1.6 3.4 2.7 5.2 3.3 3.5 1.1 6.2.1 8.4-3 2.1-3.3 3.2-8.2 3.2-14.6 0-5.5-.7-10.3-2-14.4Zm-178.2-43.8v4.4c1.2 0 2 .3 2.6.8.5.5.7 1.3.7 2.4v25.1c0 3.2-.2 5.3-.9 6.1-.6.9-1.9 1.3-3.6 1.2-1.8 0-3-.5-3.7-1.4-.7-1-1-3-1-6.2v-24.9c0-1.1.2-1.9.6-2.4.5-.4 1.3-.7 2.5-.8v-4.3h-15v4.3c1.3 0 2.2.2 2.7.7.6.5.8 1.3.8 2.5V207c0 4.9 1 8.4 2.8 10.6 1.8 2.1 4.7 3.3 8.8 3.4 4.1.2 7-.7 8.9-2.8 1.8-2 2.7-5.6 2.7-10.6l-.1-24.3c0-1.1.2-2 .7-2.4.5-.5 1.4-.7 2.8-.8v-4.4h-12.3Zm108 36c0 6.5-.8 10.7-2.3 12.7-1.4 1.9-4.2 2.4-8.5 1.7l-2.2-.4-.2-20.3.9.1c2 .2 3.3 1 4.1 2.2.8 1.3 1.3 3.4 1.3 6.3v.4l3.7.5-.2-22.5c-1.5 0-2.2 0-3.7-.2v.4c0 3-.3 5-1.1 6-.8 1.1-2.2 1.6-4.1 1.4h-1v-18.6h1.5c4.2.1 7 1.1 8.6 3 1.4 1.9 2.3 5.4 2.5 10.6l4 .3-.2-19.3-28.4-.1v5.2c1.4 0 2.3.4 2.8 1 .5.5.8 1.5.8 3l.3 35.3c0 1.4-.3 2.4-.8 2.9s-1.4.6-2.7.4v5.3a545 545 0 0 1 29 5.7l-.2-22.5-3.9-.5Zm22.4-8.2-2.3-.3v-21l2.3.1c2.7.1 4.6 1 5.6 2.5 1 1.6 1.5 4.4 1.5 8.5 0 4-.5 6.7-1.6 8.3-1 1.5-3 2.2-5.5 1.9Zm17.1 25.3v4.7c0 1.2-.1 2-.4 2.7-.3.7-.8 1-1.3.8-1-.2-1.7-3-1.9-8v-2.7a39 39 0 0 0-2-12.1 9.6 9.6 0 0 0-5.1-5 8 8 0 0 0 6.5-4.4 23 23 0 0 0 2.2-11.2c0-6-1.2-10.4-3.6-13.2-2.3-2.9-6-4.3-11-4.3h-14.8v5.8c1.3 0 2.2.4 2.8 1 .5.7.8 1.9.8 3.5l.2 39.7c0 1.6-.2 2.7-.7 3.2-.6.6-1.5.7-2.7.5v5.9a551 551 0 0 1 15.6 3.7v-6.3h-.3a4.5 4.5 0 0 1-2.7-1.6 7 7 0 0 1-.8-3.8l-.1-17.8a5.6 5.6 0 0 1 1.3.1c2.2.3 3.7 1.3 4.6 2.9a19 19 0 0 1 1.6 8.3l.1 4a44 44 0 0 0 1.6 12.8c.6 1.7 1.4 3 2.3 4a10 10 0 0 0 3.7 2c2.4.6 4.2 0 5.3-1.7a21 21 0 0 0 1.6-10v-2.9l-2.8-.6Zm-171.4-14.3c-.5-.5-.8-1.3-.8-2.5v-28.8c0-1.2.2-2 .7-2.4.5-.5 1.5-.8 2.8-.8v-4.3h-15v4.3c1.1 0 2 .3 2.4.8.5.5.7 1.3.7 2.4v11.2h-9l.1-11.2c0-1.1.2-2 .7-2.4.5-.5 1.3-.7 2.5-.8v-4.3h-15v4.4c1.2 0 2.1.2 2.6.7.6.4.8 1.3.8 2.5v29.1c0 1.2-.3 2-.8 2.5-.6.5-1.5.8-2.8.9v4.4c6-.3 9-.4 15.1-.5v-4.4c-1.1 0-2-.3-2.4-.7-.5-.5-.7-1.3-.7-2.4v-13l9-.2-.1 13c0 1.2-.2 2-.7 2.4-.5.5-1.3.8-2.5.9v4.3h15.1v-4.4c-1.3 0-2.2-.2-2.7-.7Zm-121.7-11c0 10-.4 16.3-1.1 19-.7 2.5-1.8 4-3.6 4.3-1.7.3-2.9-.7-3.5-3.2-.6-2.4-.8-8.8-.8-19.2.1-10.2.5-16.7 1.1-19.3.7-2.5 1.8-3.8 3.6-3.9 1.7 0 2.8 1.2 3.5 3.7.6 2.5.9 8.7.8 18.6Zm5.9-22.8c-1.1-2-2.5-3.5-4.2-4.5-1.7-1-3.7-1.5-6-1.5s-4.2.5-6 1.6a13 13 0 0 0-4.2 4.9c-1 2-1.8 5-2.3 8.7a134 134 0 0 0-.8 15.5c0 6.6.2 11.7.6 15.3.4 3.6 1.2 6.4 2.2 8.2a8.9 8.9 0 0 0 10.1 4.5c2.3-.5 4.2-1.4 6-2.8a18 18 0 0 0 4.3-5.4c1-2 1.8-4.7 2.3-8 .4-3.5.7-8.3.7-14.5 0-6.2-.1-11-.5-14.3-.5-3.3-1.2-5.8-2.2-7.7ZM101 204l-2.3.2.1-21.6h2.4c2.7-.2 4.6.6 5.6 2 1 1.5 1.4 4.1 1.4 8a16 16 0 0 1-1.7 8.3 7 7 0 0 1-5.5 3Zm16.9 23c0 1-.2 1.9-.5 2.6-.3.7-.8 1.1-1.3 1.2-1 .3-1.6-2-1.8-6.5l-.1-2.4a29 29 0 0 0-1.9-10.5c-1-1.9-2.7-3-5-3.4 2.8-1 5-2.8 6.6-5.7a22 22 0 0 0 2.3-10.5c0-5.3-1.1-9.2-3.4-11.8-2.4-2.5-6-3.8-11-3.8l-14.8.1v6.7c1.2 0 2.1.3 2.7 1 .5.6.7 1.9.7 3.7l-.1 43.7c0 1.8-.3 3-.8 4-.6.8-1.5 1.4-2.7 1.7v6.7c6.2-1.8 9.3-2.6 15.5-4.2v-6.3h-.2c-1.3.4-2.2.3-2.8-.3-.5-.6-.7-1.8-.7-3.5V211a6.2 6.2 0 0 1 1.4-.2c2.2-.3 3.7.2 4.6 1.5 1 1.3 1.4 3.8 1.5 7.6v3.8c.1 5.9.6 9.8 1.5 11.8a4.8 4.8 0 0 0 2.3 2.6c1 .4 2.2.4 3.7 0a7.5 7.5 0 0 0 5.3-4 21 21 0 0 0 1.7-9.4v-2.5l-2.7.5v4.1Zm-63.3-21.6 3.9-.5v-8.3c0-4.8.4-8.2 1.2-10.3.8-2 2-3.1 3.9-3.2H65l-.1 54.5a9 9 0 0 1-.8 4.4c-.6 1-1.6 1.6-3 2l-.8.3v7.4l17.4-5.4v-6.9l-.7.2c-1.5.4-2.5.3-3-.3-.6-.6-.9-2-.9-3.8l.2-52.7h1.3c1.8-.1 3.1.8 4 2.7.7 2 1.1 5 1.1 9.2v7.6l3.9-.4v-25.6l-29 .2v28.9Zm116.2-24.5c1.2 0 2 .3 2.5.8.5.6.7 1.5.7 2.7l-.2 28c0 3.6-.4 6-1 7-.7 1-1.9 1.7-3.7 2-1.8.2-3-.1-3.6-1-.7-1-1-3.3-1-7l.3-28.7c0-1.3.2-2.3.7-2.8.4-.6 1.3-.9 2.4-1l.1-5h-15l-.1 5.3c1.3 0 2.2.2 2.8.8.5.6.8 1.5.8 3l-.2 28.2c0 5.9.8 10 2.5 12.2 1.8 2.2 4.7 3 8.8 2.3 4.1-.6 7-2.2 8.9-4.8 1.8-2.6 2.8-6.7 2.8-12.1l.2-26.5c0-1.3.2-2.2.7-2.7.5-.6 1.5-.9 2.8-1v-4.7h-12.2v5Zm14.7 13c1.5 0 2.3 0 4-.2v-5.2c0-3 .4-5.1 1.2-6.4.8-1.3 2.1-2 3.9-2h1.4l-.2 34.8c0 1.2-.3 2.2-.9 2.7-.6.6-1.6 1-3 1l-.8.2v4.7c7-.8 10.5-1.1 17.6-1.7V217h-.7c-1.5.2-2.5 0-3-.4-.6-.5-1-1.3-1-2.6l.3-34.2h1.4c1.8 0 3 .6 3.9 1.8.8 1.3 1.2 3.3 1.2 6.1v5h3.9v-17.1h-29.1l-.1 18.1M64.2 112.6 50.9 29.8l-35.1-10V33a12 12 0 0 1 6.7 3.8c1.4 1.7 2 4.4 2 7.9v86c0 3.5-.6 6-2 7.3-1.3 1.4-3.5 2-6.7 2v13h30v-12.3c-3.3-.1-5.6-.9-7-2.3-1.3-1.4-2-3.8-2-7.3V39l19 114.1h11.5l19-101.5v82c0 3-.5 5-1.7 6.2-1.2 1.2-3.2 1.8-6.1 1.9v11.4h36.3v-10.4c-3.2 0-5.5-.7-6.8-2-1.3-1.1-2-3.2-2-6V63.8c0-2.7.7-4.6 2-5.4 1.2-.8 3.5-.9 6.8-.2V48L78 37.5l-13.8 75.1" />
    <path fill="#fff"
        d="M81.1 150.5h31v-5.3c-2.6-.4-4.5-1.2-5.9-2.5-1.9-1.7-2.8-4.4-2.8-8V63.8c0-3.7 1-6.2 3-7.6 1.4-1 3.3-1.3 5.8-1V50L80 41l-16 87.3L48.5 32l-30-8.6V31c2.7 1 4.8 2.4 6.2 4.2 1.7 2.2 2.5 5.3 2.5 9.5v86c0 4.2-1 7.2-2.7 9.1a9.6 9.6 0 0 1-6 2.7v8H43v-7.3a9.8 9.8 0 0 1-6.2-2.9c-1.8-2-2.7-4.9-2.7-9V39l5.3-.5 18.5 112h7l19-99.5 5.2.5v82c0 3.8-.8 6.4-2.5 8.1-1.3 1.3-3 2-5.4 2.4Zm36.4 5.3H75.8v-16.7h2.6c3-.2 4-.9 4.3-1.2.3-.3 1-1.3 1-4.2V80.2l-14.2 75.6h-16l-14-84.3v59.7c0 3.6.8 5 1.3 5.5.8.8 2.6 1.3 5 1.4h2.6v17.7H13v-18.6h2.7c2.4.1 4-.3 4.8-1 .5-.5 1.2-1.9 1.2-5.6v-86c0-2.8-.4-5-1.4-6.2a9.4 9.4 0 0 0-5.3-2.8l-2-.6V16.2l40.1 11.5 11.1 69.2L76 34.1l41.6 12v15.5l-3.2-.6c-4-.9-4.9-.3-4.9-.3-.2.1-.7 1-.7 3.2v70.7c0 2 .4 3.6 1.1 4.2.4.4 1.6 1.2 5.1 1.3h2.6v15.7" />
    <path fill="#23356a"
        d="M150.5 138.6c-1.2 3.7-3.4 5.6-6.7 5.5-3.3 0-5.5-2-6.7-6a136 136 0 0 1-1.9-29c0-15.5.6-25 1.7-28.7 1.2-3.6 3.5-5.1 6.7-4.5 3.3.5 5.5 2.8 6.7 6.7 1.3 3.9 1.9 13.3 2 28.1 0 15-.6 24.3-1.8 28Zm12.5-60c-2.2-3.3-4.9-6-8.1-8.1a32.2 32.2 0 0 0-22.5-4.4c-3.2 1-5.8 2.8-8 5.7a28 28 0 0 0-4.2 12.1 154 154 0 0 0-1.3 23.3c0 10 .4 17.9 1.3 23.5.9 5.7 2.3 10 4.3 13.2a21.1 21.1 0 0 0 19.4 10c4.3 0 8-.8 11.3-2.3 3.2-1.6 6-3.9 8-6.9 2-2.6 3.4-6.4 4.3-11.3.8-5 1.2-12 1.2-21.3 0-9.2-.5-16.3-1.4-21.4-.9-5-2.3-9-4.3-12" />
    <path fill="#fff"
        d="M142.3 78.4c-1 0-2 .5-2.8 2.8-.8 2.3-1.6 9-1.6 27.8 0 19 1 25.9 1.7 28.4 1.1 3.5 2.8 4 4.3 4 1.4 0 3-.3 4-3.6.9-2.3 1.8-9 1.7-27 0-18.2-1-25-1.8-27.4-1.2-3.9-3.2-4.7-4.6-5h-1Zm1.7 68.4h-.2c-3.2-.1-7.3-1.5-9.3-7.8-1.3-4.2-1.9-14-2-30 0-15.9.6-25.5 2-29.4 2-6.6 6.9-6.8 9.6-6.4 3 .6 6.8 2.5 8.8 8.6a127 127 0 0 1 2 29c0 15.3-.5 24.7-1.8 28.7-2 6.3-6.5 7.3-9.1 7.3ZM137.7 68c-1.7 0-3.2.2-4.6.6a12 12 0 0 0-6.5 4.7c-1.7 2.3-3 6-3.8 11-.8 5.2-1.3 13-1.3 22.8 0 9.9.5 17.6 1.3 23.1.8 5.3 2.2 9.4 4 12.2 1.9 3 4.2 5.2 7 6.6 2.8 1.4 6.2 2.1 10 2.1 3.9 0 7.3-.7 10.2-2 2.8-1.4 5.2-3.4 7.1-6 1.7-2.4 3-5.8 3.7-10.3.9-4.7 1.2-11.7 1.2-20.7s-.5-16.1-1.3-21a30 30 0 0 0-4-11.1c-1.9-3-4.4-5.5-7.3-7.4a29.6 29.6 0 0 0-15.7-4.6Zm6.2 88.5a23.9 23.9 0 0 1-21.6-11.2 37 37 0 0 1-4.7-14.3c-1-5.7-1.4-13.8-1.4-23.9 0-10.2.5-18.1 1.4-23.7.9-6 2.5-10.3 4.7-13.3 2.5-3.3 5.6-5.6 9.4-6.6 3.5-1 7.6-1.1 12.4-.2a35 35 0 0 1 12.2 4.8 30 30 0 0 1 9 9 35 35 0 0 1 4.6 13c1 5.3 1.4 12.5 1.4 22 0 9.4-.3 16.5-1.2 21.6-.9 5.3-2.5 9.5-4.6 12.5-2.5 3.4-5.6 6-9.2 7.7a28.9 28.9 0 0 1-12.4 2.6" />
    <path fill="#23356a"
        d="M214.4 77.8V85c2.3.3 4 .9 4.9 1.7.9.9 1.4 2.2 1.4 4l.1 39.7-19.5-54c-10.3-1-15.4-1.7-25.7-3.2V81c2.4.3 4.2 1 5.2 1.9 1 1 1.5 2.5 1.5 4.6 0 17 .2 34 .3 50.9 0 2-.5 3.5-1.5 4.4-1 .8-2.8 1.2-5.2 1.1v7.8h22.5v-7.4c-2.3-.1-3.9-.6-4.8-1.5-1-.8-1.5-2.2-1.5-4.2l-.2-46.4c7.1 20 14.4 39.8 21.8 59.6h16.8l-.2-60.5c0-1.9.5-3.2 1.4-4 1-.6 2.8-1 5.3-1v-7.1l-22.6-1.5" />
    <path fill="#fff"
        d="M178.6 149.2h17.2v-2.5c-1.7-.3-3-1-4-1.8-1.5-1.3-2.3-3.4-2.3-6.2l-.3-60.8a543 543 0 0 1-11-1.5V79c2 .5 3.4 1.2 4.4 2.2 1.6 1.4 2.4 3.6 2.4 6.4l.2 51c0 2.9-.8 5-2.4 6.4-1 .9-2.5 1.4-4.2 1.7Zm37 0h12.2l-.2-57.8c0-2.8.9-4.8 2.5-6a8 8 0 0 1 4.3-1.5v-2a508 508 0 0 1-17.3-1.2v2.2c1.7.4 3 1 4 2 1.5 1.4 2.2 3.4 2.2 6l.3 54.7-5.3-14.2-19-52.4-9.7-1 4.8 13.4a3906 3906 0 0 0 21.1 57.9Zm17.6 5.4h-21.4l-.6-1.7a4740 4740 0 0 1-16.6-45l.2 30.8c0 1.1.2 2 .5 2.2.2.2 1 .7 3.3.8l2.4.2.1 12.7h-2.7l-22.5-.1h-2.6v-13.2h2.7c2.5.1 3.3-.4 3.4-.5.2-.2.5-1 .5-2.3l-.3-51c0-1.2-.2-2.1-.6-2.6-.3-.2-1.2-.8-3.7-1.1l-2.4-.3V70.3l3 .4c10.3 1.5 15.4 2.1 25.7 3.2l1.7.2.6 1.6 14.2 39.6V91c-.1-1-.3-1.8-.6-2.1-.2-.2-1-.7-3.4-1l-2.3-.3V74.9l2.9.2c9 .8 13.4 1 22.5 1.5l2.5.1v12.4H237c-3 0-3.6.5-3.7.5 0 .1-.4.6-.3 1.8l.2 63.2" />
    <path fill="#23356a"
        d="M398.2 75.8c2.2-.3 3.8 0 4.7.7 1 .7 1.4 2.2 1.4 4.3l-.1 46c-6.2-19-12.5-38-19-57a547.3 547.3 0 0 1-25.7 4.1v7.7c2.4-.3 4.2 0 5.2.6 1 .7 1.5 2.2 1.4 4.3l-.2 51.7c0 2.2-.5 3.7-1.5 4.5-1 1-2.8 1.4-5.2 1.4v7.7h22.4v-8.1c-2.2 0-3.8-.5-4.7-1.4-1-.8-1.5-2.3-1.4-4.3l.2-48.8a2634 2634 0 0 1 21.1 62.5l16.9-.1V79c0-2.3.5-4 1.5-5 1-1.2 2.7-2 5.2-2.7v-8.8c-8.9 2.1-13.3 3-22.2 4.8v8.4" />
    <path fill="#fff"
        d="m373.4 74.6 4.8 13.7c7.5 21.4 14.3 41.3 20.6 60.7H411V79c0-2.9.8-5.2 2.1-6.8 1-1.2 2.6-2.2 4.6-2.9V66a505 505 0 0 1-16.9 3.6V73c1.6.2 2.8.6 3.8 1.4 1.6 1.3 2.3 3.4 2.3 6.4l-.1 62.7-5.2-16c-7.1-22-12.8-39-18.2-54.6l-10 1.7Zm-11.6 72v2.5H379v-3a8 8 0 0 1-4-1.8c-1.5-1.4-2.2-3.5-2.2-6.4l.3-63.2-11 1.6v2.6c1.7 0 3 .4 4 1.2 1.8 1.2 2.7 3.4 2.7 6.4l-.2 51.8c0 2.9-.9 5-2.5 6.5-1 .9-2.5 1.5-4.3 1.8Zm-5.3 7.9v-13h2.6c2.5 0 3.3-.6 3.5-.8.2 0 .6-.6.6-2.5l.3-51.7c0-1.4-.3-2-.4-2 0 0-.7-.5-3.3-.2l-3 .4v-13l2.4-.4c10.3-1.4 15.3-2.2 25.6-4l2.2-.4.7 2.1c4.3 12.4 8.7 25.4 13.8 41V80.9c0-1.8-.3-2.3-.3-2.3s-.6-.3-2.7 0l-3 .3V65.3l2.2-.5a545 545 0 0 0 22.1-4.8l3.3-.7v14.1l-2 .5c-2.6.7-3.6 1.5-3.9 1.9-.5.6-.8 1.7-.8 3.3v75.1l-21.5.1-.6-1.8c-5-15.5-10.3-31.2-16-47.8L378 138c0 1.4.3 2.1.5 2.3.2.1.8.7 3.1.7l2.6.1v13.3h-25l-2.7.1" />
    <path fill="#23356a"
        d="M298.2 106.6V79.5a660 660 0 0 1-55.8 0v27.1l7.6.2v-8c0-4.4.8-7.6 2.3-9.5 1.5-2 4-2.9 7.5-2.8h2.6v53.1c0 2-.5 3.3-1.6 4-1 .9-3 1.3-5.7 1.2h-1.5v7.2h33.5v-7.2h-1.4c-2.8 0-4.7-.3-5.8-1.1-1-.8-1.6-2.1-1.6-4V86.4h2.7c3.4-.1 6 .8 7.4 2.8 1.6 2 2.4 5.1 2.4 9.6v7.9l7.4-.2" />
    <path fill="#fff"
        d="M256.3 149.3h28.1v-1.8a11 11 0 0 1-6-1.6c-1.3-1-2.8-2.8-2.8-6.3V83.8h5.3c4.3 0 7.6 1.2 9.6 3.8 2 2.5 3 6.2 3 11.3v5.2h2l.1-21.9c-16.8.7-33.7.7-50.5.1V104h2.3v-5c0-5.2.9-8.9 2.8-11.3 2-2.6 5.3-3.9 9.6-3.8h5.3v55.8c0 2.8-.9 5-2.7 6.2a11 11 0 0 1-6 1.7Zm13.8 5.4H251v-12.5h4.2c3 0 4-.6 4-.7.4-.2.6-.9.6-1.9V89.1c-2.7 0-4.4.6-5.4 1.8-.8 1-1.7 3.2-1.7 8v10.6H250l-7.6-.2h-2.6V76.6l2.7.2c18.5.7 37.2.7 55.7-.1l2.8-.1-.1 32.5h-2.6c-3 .2-4.5.2-7.5.2l-2.7.1V98.8c0-4.7-1-6.9-1.7-7.9-1-1.2-2.8-1.8-5.4-1.8v50.5c0 .5 0 1.6.5 2 .2 0 1.1.6 4 .6h4.3v12.4h-19.6" />
    <path fill="#23356a"
        d="M314.6 121.6a9736 9736 0 0 0 7.1-30.7l6.6 30.2-13.7.5Zm33 12.6v-.6L333 77c-6.5.7-9.8 1-16.3 1.4a16120.8 16120.8 0 0 1-16 59.8c-1.1 4.3-3.7 6.5-7.6 6.6v7.2h23.3v-7.3H315c-1.6.1-2.9-.2-3.7-.7-.9-.6-1.3-1.4-1.3-2.6a42.4 42.4 0 0 1 .7-3.3l2.1-9 17.2-.5 1.8 9.5.2 1.1.3 1.7c0 1.3-.4 2.2-1.3 2.7-.8.5-2.5.8-5 1v7.3h30v-7.7h-.8c-3.4 0-6-3.3-7.5-10" />
    <path fill="#fff"
        d="m321.7 103-3.7 15.8c2.5 0 4.5-.2 7-.3l-3.3-15.5Zm-26 44.1v2.2h18v-1.9c-1.6-.1-3-.5-4-1.2a5.5 5.5 0 0 1-2.4-4.8 45.4 45.4 0 0 1 .7-4l2.6-11h2l17.2-.4 2.2-.1 2.3 11.7.1.6.1.4c.2.7.4 1.6.3 2.3 0 3-1.6 4.4-2.5 5-.9.5-2 .8-3.8 1v2.3h24.7v-2.6c-3.8-.9-6.6-4.9-8.2-11.8v-.4l-14-54.5-8.8.8 2.1 9.6 6.7 30.2.6 3.1-3.1.2-13.8.4-3.4.1.7-3.3 7.1-30.7 2.2-9.6-2.5.2a16676 16676 0 0 1-15.5 58c-1.2 4.4-3.8 7.3-7.6 8.2Zm-5.3 7.5v-12.4h2.6c2 0 4-.7 5.1-4.7l.2-.8 15.8-59 .5-1.8 1.9-.1 16.2-1.4 2.3-.2.6 2.2a6557.6 6557.6 0 0 1 14.6 57.2c.7 3 2.3 8 4.8 8l3.6-.1-.1 13h-35.3v-12.4l2.5-.2c2.6-.2 3.5-.5 3.8-.6v-.4l-.2-1.1v-.4l-.3-.9-1.3-7.1-12.8.3-1.7 7a39.6 39.6 0 0 0-.6 3c.2.1.7.5 2.3.4h.4l1-.1h2.8v12.6h-28.7" />
    <path fill="#23356a"
        d="m452.4 105.2 8.9-50.5 8.6 47Zm52 33.6c-4.4.2-7.6-5.6-9.6-17.3l-.2-1-19-93.2-20.8 9.8-20 94.3-.3 1c-1.4 6.4-4.6 9.7-9.7 10v10.1h30v-11.4l-1 .1-1 .1c-2 .1-3.7-.2-4.8-1-1-.9-1.6-2.1-1.6-3.8 0-.5 0-1 .2-1.7l.6-3.5 2.8-14.1 22-3.2 2.3 15.5.3 1.8c.3 1.4.4 2.3.4 2.9 0 2-.6 3.6-1.6 4.4a15 15 0 0 1-6.5 2v11.9h38.5v-13.8h-1" />
    <path fill="#fff"
        d="m461.3 69.7-5.6 32.1 11.1-2.1Zm-12.2 38.8 12.1-68.9L473 104Zm20.5 41.3h33.1v-8.5c-7.5-1.5-9.8-14.8-10.6-19.4l-.1-.8-18.3-90L457 39l-19.7 93-.3 1c-1.7 7.8-5.8 10.7-9.6 11.7v5.1H452V144a9 9 0 0 1-5.7-1.6 7.2 7.2 0 0 1-2.6-6c0-.5 0-1.2.2-2 0-.8.3-2 .6-3.6l3.1-16 26.4-3.9 3 18.1.4 1.8.3 3.4c0 3-.8 5.1-2.6 6.5a12 12 0 0 1-5.4 2.1Zm38.5 5.4h-43.9v-17l2.4-.3c3.9-.5 5-1.2 5-1.3.5-.4.7-1.2.7-2.4l-.3-2.5-.3-2-2-12.7-17.5 2.5-2.3 12.3a78.8 78.8 0 0 0-.8 4.7c0 1.2.4 1.5.5 1.6.4.3 1.2.7 3.1.6l.6-.1 1.3-.2 2.8-.1v16.9h-35.3V140l2.5-.2c2.4-.2 5.8-1.2 7.3-8l.3-1.1 20.2-95.4 25.2-11.9 19.6 96.6.2 1c2.5 14.2 5.9 15.2 6.9 15.1l3.8-.2v19.3" />
    <path fill="#23356a"
        d="M64.2 112.6 50.9 29.8l-35.1-10V33a12 12 0 0 1 6.7 3.8c1.4 1.7 2 4.4 2 7.9v86c0 3.5-.6 6-2 7.3-1.3 1.4-3.5 2-6.7 2v13h30v-12.3c-3.3-.1-5.6-.9-7-2.3-1.3-1.4-2-3.8-2-7.3V39l19 114.1h11.5l19-101.5v82c0 3-.5 5-1.7 6.2-1.2 1.2-3.2 1.8-6.1 1.9v11.4h36.3v-10.4c-3.2 0-5.5-.7-6.8-2-1.3-1.1-2-3.2-2-6V63.8c0-2.7.7-4.6 2-5.4 1.2-.8 3.5-.9 6.8-.2V48L78 37.5l-13.8 75.1m86.3 26c-1.2 3.7-3.4 5.6-6.7 5.5-3.3 0-5.5-2-6.7-6a136 136 0 0 1-1.9-29c0-15.5.6-25 1.7-28.7 1.2-3.6 3.5-5.1 6.7-4.5 3.3.5 5.5 2.8 6.7 6.7 1.3 3.9 1.9 13.3 2 28.1 0 15-.6 24.3-1.8 28Zm12.5-60c-2.2-3.3-4.9-6-8.1-8.1a32.2 32.2 0 0 0-22.5-4.4c-3.2 1-5.8 2.8-8 5.7a28 28 0 0 0-4.2 12.1 154 154 0 0 0-1.3 23.3c0 10 .4 17.9 1.3 23.5.9 5.7 2.3 10 4.3 13.2a21.1 21.1 0 0 0 19.4 10c4.3 0 8-.8 11.3-2.3 3.2-1.6 6-3.9 8-6.9 2-2.6 3.4-6.4 4.3-11.3.8-5 1.2-12 1.2-21.3 0-9.2-.5-16.3-1.4-21.4-.9-5-2.3-9-4.3-12m51.4-.9V85c2.3.3 4 .9 4.9 1.7.9.9 1.4 2.2 1.4 4l.1 39.7-19.5-54c-10.3-1-15.4-1.7-25.7-3.2V81c2.4.3 4.2 1 5.2 1.9 1 1 1.5 2.5 1.5 4.6 0 17 .2 34 .3 50.9 0 2-.5 3.5-1.5 4.4-1 .8-2.8 1.2-5.2 1.1v7.8h22.5v-7.4c-2.3-.1-3.9-.6-4.8-1.5-1-.8-1.5-2.2-1.5-4.2l-.2-46.4c7.1 20 14.4 39.8 21.8 59.6h16.8l-.2-60.5c0-1.9.5-3.2 1.4-4 1-.6 2.8-1 5.3-1v-7.1l-22.6-1.5m183.8-1.9c2.2-.3 3.8 0 4.7.7 1 .7 1.4 2.2 1.4 4.3l-.1 46c-6.2-19-12.5-38-19-57a547.3 547.3 0 0 1-25.7 4.1v7.7c2.4-.3 4.2 0 5.2.6 1 .7 1.5 2.2 1.4 4.3l-.2 51.7c0 2.2-.5 3.7-1.5 4.5-1 1-2.8 1.4-5.2 1.4v7.7h22.4v-8.1c-2.2 0-3.8-.5-4.7-1.4-1-.8-1.5-2.3-1.4-4.3l.2-48.8a2634 2634 0 0 1 21.1 62.5l16.9-.1V79c0-2.3.5-4 1.5-5 1-1.2 2.7-2 5.2-2.7v-8.8c-8.9 2.1-13.3 3-22.2 4.8v8.4m-100 30.9V79.5a660 660 0 0 1-55.8 0v27.1l7.6.2v-8c0-4.4.8-7.6 2.3-9.5 1.5-2 4-2.9 7.5-2.8h2.6v53.1c0 2-.5 3.3-1.6 4-1 .9-3 1.3-5.7 1.2h-1.5v7.2h33.5v-7.2h-1.4c-2.8 0-4.7-.3-5.8-1.1-1-.8-1.6-2.1-1.6-4V86.4h2.7c3.4-.1 6 .8 7.4 2.8 1.6 2 2.4 5.1 2.4 9.6v7.9l7.4-.2m16.4 15.1a9736 9736 0 0 0 7.1-30.7l6.6 30.2-13.7.5Zm33 12.6v-.6L333 77c-6.5.7-9.8 1-16.3 1.4a16120.8 16120.8 0 0 1-16 59.8c-1.1 4.3-3.7 6.5-7.6 6.6v7.2h23.3v-7.3H315c-1.6.1-2.9-.2-3.7-.7-.9-.6-1.3-1.4-1.3-2.6a42.4 42.4 0 0 1 .7-3.3l2.1-9 17.2-.5 1.8 9.5.2 1.1.3 1.7c0 1.3-.4 2.2-1.3 2.7-.8.5-2.5.8-5 1v7.3h30v-7.7h-.8c-3.4 0-6-3.3-7.5-10m104.7-29 8.9-50.5 8.6 47Zm52 33.6c-4.4.2-7.6-5.6-9.6-17.3l-.2-1-19-93.2-20.8 9.8-20 94.3-.3 1c-1.4 6.4-4.6 9.7-9.7 10v10.1h30v-11.4l-1 .1-1 .1c-2 .1-3.7-.2-4.8-1-1-.9-1.6-2.1-1.6-3.8 0-.5 0-1 .2-1.7l.6-3.5 2.8-14.1 22-3.2 2.3 15.5.3 1.8c.3 1.4.4 2.3.4 2.9 0 2-.6 3.6-1.6 4.4a15 15 0 0 1-6.5 2v11.9h38.5v-13.8h-1" />
</svg>