<svg xmlns="http://www.w3.org/2000/svg" width="230" height="230"><path fill="#fff" d="M175.759 156.365c4.242 0 8.56.775 12.278 3.539 7.812 5.809 9.097 15.768 10.036 23.04.155 1.2.339 2.623.552 3.84 3.418-3.44 9.396-11.549 13.94-23.239 4.826-12.416 8.95-31.366 1.194-51.133-14.153-36.07-45.647-54.08-96.276-55.06a67.129 67.129 0 0 0-1.487-.015c-47.597 0-82.28 44.256-83.747 46.159-5.556 7.204-8.374 15.214-10.432 21.063-.708 2.008-1.318 3.744-1.95 5.221-1.099 2.563-3.006 5.512-4.85 8.363-1.215 1.88-2.913 4.506-3.702 6.15.888.012 2.483-.128 5.272-.8 6.578-1.588 15.54 2.172 18.665 4.442.628.456 2.534 1.842 2.714 4.172l.144 1.874-1.352 1.308c-.073.072-6.772 6.547-10.105 9.844 1.15.553 3.735 1.192 8.264.453 6.745-1.101 17.032-6.93 26.98-12.569 5.702-3.233 11.598-6.574 17.164-9.244 5.199-2.493 11.656-7.055 19.134-12.34 13.593-9.603 30.51-21.555 47.52-25.705 17.668-4.315 34.392-2.663 44.73 4.416 6.208 4.25 9.992 10.315 10.941 17.54 1.81 13.787-14.16 18.925-26.994 23.053-4.714 1.518-13.49 4.341-14.174 6.275.004.197.02.345.037.448 1.187.362 4.657-.08 7.004-.382 2.644-.34 5.553-.713 8.5-.713m21.36 40.083a4.741 4.741 0 0 1-3-1.053c-2.794-2.235-3.318-6.292-3.98-11.427-.797-6.177-1.79-13.862-6.875-17.644-3.71-2.76-9.701-1.99-14.986-1.311-5.224.672-10.16 1.304-13.425-1.57-1.744-1.533-2.627-3.714-2.627-6.482 0-7.496 9.137-10.434 19.716-13.838 12.722-4.093 22.386-7.753 21.512-14.397-.654-4.977-3.188-9.01-7.53-11.983-8.49-5.813-22.813-7.027-38.314-3.243-15.531 3.789-31.08 14.775-44.797 24.467-7.774 5.492-14.488 10.234-20.293 13.02-5.319 2.55-11.093 5.823-16.68 8.989-11.045 6.26-21.477 12.174-29.636 13.505-10.01 1.633-15.528-1.582-17.348-5.134-1.385-2.705-.865-5.87 1.327-8.062 1.69-1.69 4.984-4.9 7.533-7.374-2.837-1.167-6.865-2.22-9.25-1.643-3.291.795-13.307 3.22-15.368-4.459-.899-3.344 1.277-6.94 5.201-13.009 1.663-2.572 3.383-5.232 4.213-7.171.53-1.234 1.099-2.851 1.759-4.726 2.237-6.36 5.302-15.071 11.642-23.292 1.568-2.032 38.602-49.274 90.094-49.274.543 0 1.084.005 1.63.016 54.223 1.05 88.101 20.72 103.57 60.137 15.926 40.589-11.128 79.002-19.48 85.156-1.831 1.352-3.373 1.8-4.609 1.802"/><path fill="#fff" d="M152.28 50.281c-3.98-1.879-4.13-1.983-7.98-4.618-1.272-.871-2.935-2.01-5.251-3.566-10.266-6.896-20.166-7.085-25.526-5.148-7.05 2.547-22.306 15.787-22.953 16.348l-4.148 3.612 5.44-.813c.128-.019 13.108-1.934 32.369-2.55 18.97-.608 43.075 9.817 43.316 9.923l1.524-2.812c-.543-.356-13.326-8.743-16.79-10.376"/><path fill="#fff" d="M125.848 50.854c11.65 0 24.71 3.659 33.3 6.588-3.554-2.238-6.662-4.117-8.005-4.75-4.168-1.967-4.483-2.183-8.335-4.82-1.28-.876-2.936-2.01-5.247-3.56-9.441-6.344-18.358-6.581-23.13-4.856-4.488 1.621-13.52 8.63-19.396 13.541 5.187-.617 15.676-1.685 29.112-2.116.562-.017 1.13-.027 1.701-.027m40.628 15.057c-.234-.1-23.851-10.305-42.159-9.7-19.096.611-31.932 2.502-32.059 2.52l-14.475 2.166 11.037-9.61c1.66-1.446 16.426-14.183 23.798-16.846 5.94-2.149 16.818-2.013 27.918 5.443a619.456 619.456 0 0 1 5.27 3.579c3.83 2.62 3.83 2.62 7.613 4.405 3.31 1.561 13.901 8.454 17.07 10.529l2.051 1.344-3.816 7.154"/><path fill="#80cc28" d="M33.978 152.415c-.134-1.74-10.567-6.458-16.451-5.035-5.885 1.423-9.764 1.383-10.567-1.607-.802-2.99 6.822-11.951 9.228-17.569 2.408-5.617 5.053-16.986 12.892-27.15 7.84-10.166 42.59-48.59 88.479-47.702 45.89.889 83.34 15.334 99.924 57.598 16.586 42.266-16.853 84.531-20.865 81.322-4.012-3.21-.534-21.4-10.967-29.158-10.432-7.758-29.425 4.547-29.425-6.153s43.603-10.432 41.195-28.757c-2.407-18.323-25.547-24.743-50.759-18.59-25.211 6.152-50.357 30.325-65.872 37.766-15.515 7.441-33.75 20.28-45.23 22.154-11.48 1.872-15.492-3.477-12.55-6.42 2.943-2.944 10.968-10.7 10.968-10.7"/><path fill="#a1e1f8" d="M43.545 111.62s14.38-1.08 22.998 4.013c8.617 5.092 9.032 7.378 9.032 7.378s14.055.99 32.105-9.08c18.05-10.069 32.504-21.304 55.972-17.291 23.47 4.012 30.83 10.821 39.082 24.251 5.773 9.399 8.25 26.022 9.399 23.23 1.152-2.792-.024-12.785-1.591-21.231-1.565-8.446-20.64-43.358-34.47-45.036-13.828-1.679-82.48-3.25-93.896 3.153-11.417 6.404-38.631 30.613-38.631 30.613"/><path fill="#e27cc4" d="M54.71 108.149c2.808 1.33 18.48-5.501 54.97-20.582 24.704-10.21 48.814-8.583 68.213 0 24.136 10.678 24.841 24.053 30.094 39.102 3.974 11.38 4.787 22.384 4.146 17.452-.64-4.933 1.504-31.615-6.98-45.33-8.485-13.715-32.355-31.101-63.355-35.285-31-4.182-61.893 18.472-73.215 27.073-12.05 9.15-13.873 17.57-13.873 17.57m-10.745 6.89s5.328 4.672 2.338 10.904c-3.008 6.273-7.226 5.273-7.226 5.273s9.212.868 12.422 1.804c3.21.936 9.221 2.675 15.044 0 5.821-2.676 10.837-7.11 9.032-10.009-1.806-2.898-9.201-7.409-15.936-10.069-6.736-2.66-13.336-3.748-13.336-3.748"/><path fill="#e27cc4" d="M90.486 122.89s7.924 2.773 8.644 5.314c.72 2.542 2.724 9.363 5.333 8.762 2.61-.602 6.03-2.152 8.027-7.019 1.996-4.868 3.08-9.257-.868-12.053-3.948-2.797-12.381-4.524-16.792-2.261-4.41 2.261-4.946 2.261-4.946 2.261l-2.272 4.996h2.874"/><path fill="#c2e46c" d="M108.76 127.743c-2.427 2.276-5.222 3.761-8.249 4.67.987 2.509 2.355 4.92 3.952 4.553 2.61-.602 6.03-2.152 8.027-7.019 1.482-3.618 2.458-6.972 1.242-9.604-1.449 2.615-2.638 5.21-4.973 7.4"/><path fill="#23356a" d="M85.03 82.147c.583 1.12-.258 2.712-1.88 3.556-1.62.845-3.408.623-3.991-.496-.583-1.119.258-2.712 1.88-3.556 1.62-.845 3.409-.623 3.991.496m16.063 3.575c.389.748-.174 1.812-1.258 2.375-1.082.566-2.277.416-2.668-.331-.389-.748.174-1.812 1.258-2.376 1.084-.566 2.278-.416 2.668.332m8.197-10.459c.421 1.188-.634 2.65-2.356 3.26-1.723.612-3.461.144-3.884-1.045-.421-1.19.633-2.65 2.356-3.261 1.723-.611 3.461-.143 3.884 1.046m23.003-.464c.078 1.26-1.34 2.372-3.165 2.484-1.824.11-3.367-.82-3.444-2.08-.076-1.258 1.34-2.37 3.165-2.482 1.826-.111 3.367.818 3.444 2.078m-13.45-4.55c.221.688-.407 1.505-1.404 1.826-.997.32-1.984.023-2.205-.665-.223-.687.406-1.505 1.402-1.827.998-.321 1.986-.022 2.207.666m6.814 6.047c.243.682-.362 1.518-1.349 1.868-.987.351-1.983.083-2.225-.6-.242-.68.362-1.517 1.35-1.866.987-.35 1.983-.083 2.224.598m27.372-2.742c-.099.716-1.02 1.18-2.059 1.037-1.037-.144-1.797-.84-1.699-1.557.1-.716 1.022-1.18 2.06-1.036 1.036.144 1.796.84 1.698 1.556M76.504 95.77c.583 1.118-.259 2.71-1.88 3.556-1.621.844-3.41.62-3.992-.498-.584-1.12.259-2.712 1.88-3.556 1.621-.845 3.41-.622 3.992.498m16.317 2.9c.464.889-.205 2.156-1.495 2.827-1.289.671-2.71.495-3.174-.395-.464-.891.205-2.156 1.496-2.828 1.288-.672 2.709-.495 3.173.396m13.6.196c.388.746-.174 1.806-1.254 2.37-1.081.563-2.272.415-2.661-.332-.388-.745.173-1.806 1.253-2.37 1.082-.562 2.272-.415 2.662.332m9.871-9.89c.327.626-.145 1.518-1.053 1.991-.91.473-1.91.348-2.237-.279-.327-.626.145-1.518 1.053-1.992.908-.473 1.91-.348 2.237.28m17.42-.663c.242.68-.362 1.518-1.35 1.867-.986.351-1.982.083-2.223-.598-.243-.682.36-1.519 1.349-1.868.987-.35 1.983-.083 2.224.599m15.706-1.304c.044.72-.767 1.358-1.812 1.422-1.045.064-1.93-.47-1.973-1.19-.044-.722.768-1.36 1.813-1.423 1.045-.064 1.928.47 1.972 1.19m-49.84-13.86c.423 1.19-.632 2.65-2.356 3.262-1.723.612-3.461.143-3.884-1.045-.421-1.19.634-2.65 2.356-3.261 1.723-.612 3.463-.144 3.884 1.045m65.356 7.165c-.147.47-.818.677-1.498.465-.68-.214-1.113-.768-.966-1.237.148-.47.818-.677 1.498-.464.68.212 1.112.765.966 1.236m-19.696-9.621c.052.841-.894 1.584-2.112 1.659-1.22.073-2.249-.547-2.301-1.388-.05-.842.896-1.584 2.113-1.659 1.219-.075 2.248.547 2.3 1.388m31.853 75.52s-9.83 4.194-6.22 4.394c3.612.201 25.28-9.43 24.878-8.827-.4.602-5.25 4.402-5.25 4.402s-14.412 7.234-11.803 7.434c2.608.202 22.662-10.362 22.366-9.494-.297.868-1.301 2.092-1.301 2.092s-14.245 10.88-11.635 11.147c2.608.268 16.45-11.147 16.45-11.147l-2.634 5.442s-11.208 8.581-10.005 10.588c1.204 2.007 16.78-14.062 16.78-14.062l-1.331 3.83s-10.697 17.053-8.76 18.257c1.939 1.204 11.75-18.257 11.75-18.257l2.026-2.609s-11.236 28.89-9.43 29.091c1.806.201 12.038-24.075 12.038-24.075l2.206-2.407s-8.809 21.586-6.84 21.668c1.969.08 4.582-5.44 4.582-5.44s-11.577 19.845-13.896 21.722c-2.32 1.877-4.638 2.875-5.276 1.242-.638-1.634-4.334-22.418-7.234-25.255-2.901-2.836-8.039-6.876-18.478-5.19-10.437 1.685-15.85-.131-13.848-3.799 2.003-3.668 6.01-6.361 10.401-7.848 4.39-1.488 10.464-2.898 10.464-2.898M22.213 164.409s13.17-3.77 20.725-10.59c7.557-6.822 9.364-11.236 9.364-11.236s-6.57-2.96-14.622-2.965c-11.66-.01-20.087 4.57-20.087 4.57s11.487-1.204 18.328 3.01c5.022 3.093 3.281 6.22 0 8.626-3.281 2.408-13.708 8.585-13.708 8.585"/><path fill="#23356a" d="M33.898 159.745s-7.574 3.417-4.818 4.664c2.757 1.247 12.63-3.368 17.223-6.98 4.594-3.61 11.75-12.237 11.75-12.237l3.88 1.023s-6.622 7.202-9.631 9.609c-3.01 2.408-9.967 7.825-6.623 7.424 3.344-.402 27.889-14.244 27.889-14.244l-18.789 12.569-19.22 7.961h-9.34l-3.855-3.142-.959-1.983 7.675-2.461 4.818-2.203m53.714-36.855s4.698-.568 9.229 5.314c4.53 5.884 4.213 12.662 7.824 11.414 3.611-1.248 13.57-11.48 11.5-17.699-2.07-6.22-4.937-8.463-14.136-8.345-9.201.119-13.815 5.11-11.608 4.32 2.207-.79 15.758-3.072 20.117.877 4.358 3.951 1.149 8.198-.858 11.59-2.006 3.394-5.242 6.017-8.626-.187-6.22-11.403-13.442-7.284-13.442-7.284m64.669-72.609c-3.98-1.879-4.13-1.983-7.981-4.618-1.272-.871-2.935-2.01-5.251-3.566-10.266-6.896-20.166-7.085-25.526-5.148-7.05 2.547-22.306 15.787-22.953 16.348l-4.148 3.612 5.44-.813c.128-.019 13.108-1.934 32.369-2.55 18.97-.608 43.075 9.817 43.316 9.923l1.524-2.812c-.543-.356-13.326-8.743-16.79-10.376"/><path fill="#c2e46c" d="M91.625 56.113s15.268-13.576 21.974-16.05c5.132-1.894 14.368-1.347 23.58 4.972 9.211 6.32 7.674 6.127 13.16 8.302s15.336 7.736 15.336 7.736-23.011-8.15-42.178-7.525c-19.166.625-31.872 2.565-31.872 2.565"/><path fill="#80cc28" d="M144.086 51.101c-13.393-4.962-28.568-9.205-42.379-3.35-5.35 4.157-10.082 8.362-10.082 8.362s12.706-1.94 31.872-2.565c19.167-.626 42.178 7.525 42.178 7.525s-5.402-3.05-10.434-5.515c-3.694-1.552-7.4-3.065-11.155-4.457"/><path fill="#23356a" d="M218.978 110.365c-15.075-38.414-48.24-57.588-101.387-58.617-51.155-1.015-88.229 46.312-89.782 48.325-6.105 7.917-9.097 16.42-11.28 22.626-.674 1.915-1.256 3.567-1.814 4.874-.913 2.126-2.688 4.873-4.405 7.529-3.451 5.337-5.534 8.727-4.9 11.087 1.456 5.419 9.192 3.55 12.494 2.751 4.307-1.043 11.474 1.744 13.87 3.372-2.3 2.23-7.63 7.398-9.898 9.666-1.465 1.466-1.807 3.487-.888 5.278 1.435 2.803 6.085 5.287 14.832 3.86 7.735-1.26 17.987-7.071 28.842-13.223 5.62-3.185 11.43-6.478 16.823-9.065 5.623-2.697 12.258-7.387 19.944-12.816l1.508-1.064c-.835-.64-1.434-1.606-1.87-2.61l-1.492 1.053c-7.565 5.345-14.1 9.961-19.48 12.541-5.491 2.635-11.35 5.956-17.017 9.168-10.597 6.006-20.605 11.68-27.777 12.849-7.556 1.23-10.798-.872-11.457-2.157-.283-.552-.184-1.058.301-1.543 2.9-2.9 10.868-10.604 10.948-10.681l.543-.525-.058-.752c-.085-1.1-1.03-1.906-1.734-2.418-2.915-2.118-11.219-5.372-16.695-4.053-7.995 1.932-8.48.13-8.638-.46-.25-1.179 2.72-5.772 4.495-8.517 1.789-2.767 3.64-5.63 4.658-8.005.601-1.405 1.2-3.105 1.892-5.072 2.112-6.004 5.005-14.224 10.796-21.733 1.512-1.961 37.63-48.072 87.176-47.076 51.708 1.001 83.914 19.509 98.462 56.58 11.717 29.86-2.9 58.18-7.656 66.149-4.99 8.357-9.43 12.506-10.946 13.086-.866-1.134-1.283-4.377-1.69-7.52-.884-6.847-2.094-16.223-9.09-21.426-3.197-2.378-7.056-3.057-10.908-3.057-2.801 0-5.6.36-8.136.685-3.933.504-7.646.979-9.011-.218-.178-.158-.722-.636-.722-2.275 0-3.41 8.047-6 15.83-8.504 11.984-3.856 26.904-8.655 25.352-20.462-.857-6.529-4.29-12.018-9.921-15.875-9.785-6.702-25.788-8.222-42.81-4.066-11.202 2.734-22.465 9.017-32.739 15.733.001.09.017.179.005.272-.178 1.468-.608 2.948-1.198 4.372 10.822-7.276 22.882-14.375 34.693-17.258 16.15-3.941 31.193-2.596 40.237 3.596 4.926 3.373 7.804 7.964 8.55 13.645 1.203 9.152-11.738 13.314-23.154 16.987-9.689 3.118-18.055 5.81-18.055 11.56 0 2.05.609 3.627 1.812 4.684 2.454 2.161 6.665 1.62 11.54.993 5.737-.734 12.236-1.569 16.719 1.763 5.904 4.39 6.968 12.636 7.824 19.262.594 4.599 1.062 8.232 3.1 9.862.442.354.95.53 1.518.53.903 0 1.966-.445 3.175-1.336 9.533-7.024 33.267-45.151 18.669-82.354"/><path fill="#23356a" d="M56.582 111.62c-1.07.669 16.049 5.885 18.323 15.649 2.275 9.763 1.338 16.282-2.408 20.111-3.744 3.83-14.445 11.721-14.445 11.721s23.942-7.292 23.674-19.83c-.266-12.537-4.515-17.232-9.797-21.377-5.28-4.146-15.347-6.274-15.347-6.274m-41.105 27.344c-.066.101-.13.204-.193.308l.193-.308"/><path fill="#23356a" d="M205.218 95.172c-14.72-20.92-40.968-35.046-77.534-36.384C91.116 57.45 69.131 71.762 52.302 85.27c-21.129 16.96-25.814 32.1-28.078 37.74-2.045 5.098-7.677 14.236-8.747 15.953.646-1.001 2.915-4.193 5.928-4.74l11.757-2.14 10.483.936-4.568-1.804c-.552.1-1.117.16-1.696.16-5.241 0-9.504-4.262-9.504-9.502 0-5.24 4.263-9.504 9.504-9.504a9.46 9.46 0 0 1 6.584 2.668c3.129-4.344 24.263-32.115 60.098-42.339 37.349-10.657 77.736 1.872 94.563 20.864 16.828 18.994 11.368 50.29 13.507 50.558 2.14.268 4.171-33.193-6.915-48.949"/><path fill="#c2e46c" d="M37.38 113.574a8.301 8.301 0 1 0 0 16.602 8.301 8.301 0 0 0 0-16.602"/><path fill="#23356a" d="M36.653 128.204a6.286 6.286 0 1 1 0-12.571 6.286 6.286 0 0 1 0 12.571Zm.728-14.63a8.301 8.301 0 1 0 0 16.602 8.301 8.301 0 0 0 0-16.602"/><path fill="#23356a" d="M64.618 137.994c-2.251-2.152-11.261-9.044-32.87-7.374-14.761 1.142-23.742 11.947-24.116 12.405l-.538.658v.84c0 .925.438 2.285 1.677 3.07.616.391 1.323.59 2.099.59.712 0 1.49-.168 2.316-.5.754-.306 1.63-.794 2.74-1.414 3.326-1.856 8.893-4.96 16.252-5.635 9.413-.86 19.501 2.617 23.99 5.165 3.831 2.176 7.679 1.162 9.347-.898 1.379-1.694 1.635-4.487-.897-6.907"/><path fill="#c2e46c" d="M8.612 145.057s0 1.858 2.628.867c2.627-.99 10.132-6.976 20.238-7.841 10.107-.867 20.755 2.723 25.18 5.074 4.424 2.352 8.71-.742 5.392-3.713-3.319-2.97-12.357-7.508-30.572-6.189-13.677.99-22.866 11.802-22.866 11.802"/><path fill="#23356a" d="M37.68 123.011a2.12 2.12 0 1 1 0-4.24 2.12 2.12 0 0 1 0 4.24m-1.027-5.117a4.026 4.026 0 1 0 .001 8.052 4.026 4.026 0 0 0-.001-8.052"/></svg>