<svg xmlns="http://www.w3.org/2000/svg" width="521" height="272">
    <path fill="#23356a"
        d="m245.2 130.032-.028-8.544c.821.019 1.601.036 2.472.053l.007 8.496Zm183.316-40.39.005-5.134 1.147-.301Zm81.82 34.04a58.14 58.14 0 0 1-.973-4.573 28.152 28.152 0 0 0-.287-1.602L486.364 5.92l-44.545 20.924-6.62 31.248V43.96l-18.164 4.264c-8.728 2.052-12.996 2.976-21.742 4.715l-6.328 1.257-6.336 1.127a839.504 839.504 0 0 1-8.478 1.472l-7.467 1.182c-2.716.406-5.624.818-9.167 1.306l-12.71 1.745-.012 2.73-.695-2.651-12.53 1.21c-2.694.26-4.809.456-6.78.628L306.631 64.3l-8.979.39a648.274 648.274 0 0 1-54.62.058l-5.277-.24c-8.83-.436-13.165-.725-22.09-1.472l-7.72-.65-5.073-.555a687.7 687.7 0 0 1-10.437-1.148l-7.883-1.01c-2.074-.28-4.31-.597-6.882-.968l-16.976-2.446.002.457c-4.258-2.399-9.026-4.132-14.212-5.164-6.229-1.239-11.764-1.24-16.868.003V36.85l-63.25-18.028-1.224 6.66-1.179-7.344L.974.188v44.25l8.755 2.25v78.273l-8.755-.248v43.192h128.643v-1.641c4.318 1.605 9.094 2.416 14.251 2.416 6.325 0 12.163-1.22 17.36-3.628l.007 1.476 14.657.056c8.999.033 13.497.05 22.533.073l4.942-.013 41.954.105v-.001l25.034.012 24.814-.013c7.994-.008 12.64-.015 21.238-.032l9.461-.019c10.263-.024 16.15-.039 25.143-.067l12.928-.046c6.144-.024 10.478-.042 17.753-.074l4.424-.02.001.002 23.911-.127v.908h110.165v-44.048l-9.857.459" />
    <path fill="#ae917a"
        d="m465.924 132.452-3.05.364v-.25l-7.669.362.015-.072 1.633-8.48 8.272-1.213 1.15 7.45a33.3 33.3 0 0 0 .3 1.755c-.203.028-.42.056-.651.084ZM114.196 66.508l3.53.745c-1.411 1.976-2.582 4.316-3.53 7.051Zm29.148 42.523c-.015-7.102.103-12.308.275-16.122.269 3.898.484 9.583.514 17.86.03 7.522-.112 12.862-.314 16.642-.255-4.028-.456-9.888-.475-18.38Zm155.25 5.682c-1.817 6.775-3.657 13.628-5.52 20.55a47.34 47.34 0 0 0-.243.868 5.457 5.457 0 0 1-.179.577l-.097.003-6.168.014.014-21.733 4.51-.093c3.016-.064 4.525-.099 7.54-.182ZM505.76 130.58c-.673-1.224-1.881-4.12-2.978-10.39-.079-.527-.16-.974-.24-1.345L481.524 15.571l-17.664 8.297-5.883 2.763-10.324 4.849-20.766 98.03c-.062.25-.147.602-.263 1.1-.817 3.657-1.775 3.72-2.347 3.758l-2.472.163.055-55.143c.177-.055.385-.115.62-.176l6.052-1.592V52.383l-9.972 2.341c-8.79 2.065-13.101 3-21.968 4.761l-6.393 1.271-6.4 1.139a810.858 810.858 0 0 1-8.606 1.493l-7.525 1.192c-2.737.41-5.67.824-9.244 1.317l-6.977.958-.114 23.982 6.674-.828-.223 46.014-1.067.017c-.308-.667-.726-1.785-1.145-3.56-.07-.343-.143-.64-.21-.892-5.609-22.216-10.223-40.204-14.52-56.605l-1.753-6.686-6.878.666c-2.719.261-4.852.46-6.898.638l-7.166.566-2.056.149-5.78.413-1.486 5.603c-.8 3.02-1.613 6.079-2.43 9.153l.037-14.494-8.49.368c-18.317.796-36.88.816-55.183.06l-2.651-.111-2.68-.132c-8.948-.443-13.328-.736-22.319-1.488l-7.805-.657-5.119-.56a691.172 691.172 0 0 1-10.596-1.166l-7.933-1.016c-2.09-.284-4.345-.602-6.936-.976l-9.32-1.344.035 6.988a35.236 35.236 0 0 0-8.158-7.308c-4.084-2.633-8.824-4.501-14.092-5.55-5.696-1.132-10.617-1.062-15.044.224a22.413 22.413 0 0 0-7.19 3.57V41.892L71.597 27.255 64.7 64.783l-6.645-41.386L7.64 9.028v30.248l6.096 1.567c1.495.384 2.144.777 2.312.882.102.28.346 1.142.346 2.96v85.944c0 .474-.016.868-.041 1.194-.135-.011-.237-.002-.367-.006l-8.346-.236v29.667h115.31v-6.712a27.759 27.759 0 0 0 5.905 4.124c4.305 2.232 9.357 3.363 15.012 3.363 5.439 0 10.41-1.047 14.775-3.112 3.496-1.658 6.57-3.98 9.189-6.908l.037 7.893 8.047.03c8.997.034 13.495.049 22.492.074l24.692.056 5.963.012 9.569.015-.15-45.427 3.794.1c3.043.079 4.563.113 7.605.17l4.427.086.015 21.717-8.812-.021.034 23.383 8.1.005a19810.115 19810.115 0 0 0 31.29.001h.396l1.733-.001 8.099-.005v-.003c7.99-.007 12.637-.013 21.244-.03l1.274-.003v.002l8.172-.018c10.26-.024 16.146-.039 25.132-.068v.001l7.286-.027 5.644-.018v-.003c6.142-.023 52.78.69 52.78.69h96.832v-30.397l-7.766.363" />
    <path fill="#23356a"
        d="m479.465 217.968-.013-56.165-19.412-.146c-2.835-1.188-5.848-.456-8.983-.456-3.798 0-10.244-.326-16.033 5.42-3.964-2.849-9.65-5.201-17.64-5.246l-22.281-.124c-8.44-.042-13.799-.066-21.878-.1l-11.517-.046c-7.62-.029-12.893-.046-20.456-.069l-80.133-.121-31.579.022v-.005l-6.196.01-5.483.003v.004l-3.15.006c-9.908.016-15.608.028-24.248.052l-.003-.002-45.785 1.626c-2.568-.808-5.295-1.215-8.158-1.215-5.105 0-9.752-.165-13.798 2.39a24.78 24.78 0 0 0-3.323 2.51c-4.77-3.275-10.772-4.95-17.664-4.93l-22.176.14c-9.139.06-14.881.103-25.116.18l-14.62.113-.004 60.216 10.364-1.331-.015 11.079-4.589 1.334-.027 38.766 19.284-6.24c6.859-2.218 10.2-3.251 16.974-5.244l8.888-2.55a543.172 543.172 0 0 1 15.233-4.061l3.107-.788c2.553.344 5.238.184 8.005-.48 3.815-.919 7.161-2.645 9.913-5.084 3.758 1.11 7.812 1.233 12.095.36 4.527-.923 8.623-2.825 12.175-5.652a29.198 29.198 0 0 0 2.548-2.287c3.781 2.047 9.022 3.392 16.052 2.322 3.177-.48 6.106-1.354 8.742-2.598l14.135-1.558c6.912-.763 10.288-1.088 17.2-1.656l11.683-.963 11.481-.51c5.961-.265 8.86-.36 14.753-.48l2.534-.049c5.941-.097 8.841-.11 14.77-.068l9.607.068c2.579.81 5.401 1.274 8.441 1.387 3.042.115 5.876-.137 8.488-.756l9.28.608c4.746.312 7.019.481 11.535.863l7.89.716 11.791 1.249 8.786 1.096c6.938.907 10.309 1.393 17.122 2.476l8.948 1.49c11.415 1.98 16.964 3.073 28.254 5.562l4.353.973c6.147 1.4 9.141 2.12 15.256 3.667l3.47.88c2.215 1.608 4.727 2.808 7.495 3.576 2.788.773 5.52 1 8.15.687l2.502.724c1.252.361 1.892.55 3.208.938l2.792.824c2.499 1.894 5.203 3.312 8.056 4.23 2.372.761 4.74 1.132 7.044 1.132 7.15 0 13.712-3.568 18.066-10.123 3.826-5.757 5.688-13.168 5.688-22.655 0-5.801-.631-11.148-1.878-15.941" />
    <path fill="#ae917a"
        d="m398.485 203.777-.008-1.002.303.024.007.954Zm-33.258 11.78-2.112-.33-.09-12.476 2.416.156.094 12.694Zm-27.247-3.486-.068-10.727 1.996.097.076 10.851Zm133.601 5.093-.001-.004c-.593-1.765-1.376-3.597-2.343-5.487l2.894.355-.011-42.948-13.721-.103a15.789 15.789 0 0 0-7.342-1.776c-3.998 0-9.708 1.546-14.198 8.91-.394.646-.76 1.309-1.1 1.992a18.636 18.636 0 0 0-1.74-2.479c-3.79-4.547-9.382-6.875-16.675-6.916l-22.277-.124c-8.438-.041-13.798-.065-21.871-.101l-11.516-.046v.002c-7.617-.03-12.89-.047-20.441-.07l-.68-.001c-1.212-.005-2.484-.007-3.834-.012l-7.474-.021v.002l-14.62-.037v.003l-2.151-.003-9.683-.02-8.524-.012v.001l-15.262-.016v.002l-17.892-.007-6.112.003v-.002l-29.838.023-.037 11.772.087 7.463 3.402-.016-.057 21.026-3.519.142-.06 19.254 7.754-.345c6.052-.268 8.985-.364 14.941-.487l2.548-.048c5.959-.1 8.892-.114 14.945-.069l7.462.053-.002-1.637c2.87 1.861 6.488 2.883 10.814 3.044 4.396.167 8.11-.623 11.074-2.347l.006 1.758 6.89.45c4.776.314 7.078.487 11.719.878l7.933.72c1.178.114 2.155.21 3.068.304l8.924.968 8.828 1.1c7 .916 10.41 1.409 17.375 2.516l8.999 1.496c11.521 2 17.134 3.104 28.601 5.633l4.38.98a540.51 540.51 0 0 1 15.428 3.708l4.98 1.26c1.727 1.495 3.788 2.583 6.144 3.237 2.348.651 4.592.722 6.615.242l4.116 1.192c1.3.374 1.948.565 3.246.949l4.171 1.23c2.112 1.791 4.407 3.091 6.844 3.873 6.563 2.108 12.835-.158 16.76-6.066 3.003-4.517 4.461-10.6 4.461-18.596 0-6.306-.816-11.94-2.428-16.745ZM188.39 211.5l-1.713.175c.008-.315.013-.634.016-.956l.067-9.54 1.694-.076ZM82.864 230.304l-2.317.613.044-19.628 2.349.363Zm107.62-61.964v-.001l-44.912.156-.008.965c-2.69-1.445-5.727-2.177-9.032-2.177h-.015c-3.696 0-7.026.92-9.892 2.73-2.668 1.68-4.886 4.118-6.601 7.25a17.684 17.684 0 0 0-1.832-2.355c-3.836-4.15-9.375-6.223-16.416-6.19l-10.659.066v-.001l-11.512.073v.004c-9.136.06-14.877.101-25.109.18l-7.344.056-.001 44.604 10.373-1.332-.032 24.92-4.587 1.335-.016 23.177 9.687-3.135c6.93-2.241 10.31-3.284 17.21-5.316l8.934-2.562a546.35 546.35 0 0 1 15.404-4.107l4.659-1.181c1.994.492 4.184.457 6.541-.11 4.173-1.004 7.485-3.378 9.635-6.89.709.472 1.457.882 2.24 1.229 3.073 1.361 6.565 1.66 10.384.883 3.382-.691 6.436-2.106 9.074-4.207 2.338-1.857 4.328-4.257 5.927-7.14.141.2.288.393.439.584 2.402 3.037 7.073 6.393 15.702 5.08 6.168-.932 10.827-3.597 13.848-7.925.395-.564.76-1.16 1.098-1.788l-.042 6.43 8.267-.912c7.012-.773 10.427-1.101 17.403-1.676l6.758-.557.1-19.333-4.633.336.052-9.274 10.447-.304.149-31.648-7.45.011c-9.903.016-15.602.028-24.238.052" />
    <path fill="#fff"
        d="M322.079 175.721c.01 1.855.016 2.782.028 4.636 1.194.083 2.03.382 2.52.899.488.519.733 1.37.741 2.55l.157 25.357c-4.128-13.674-6.188-20.342-10.293-33.458l-13.527-.024.02 4.475c1.28.01 2.188.259 2.719.744.53.487.8 1.344.804 2.57l.141 29.854c.006 1.225-.256 2.068-.784 2.528-.529.459-1.437.648-2.722.572l.02 4.475c4.742.31 7.114.489 11.856.888-.011-1.824-.015-2.736-.024-4.56-1.199-.16-2.046-.504-2.544-1.036-.499-.532-.752-1.382-.759-2.552l-.141-27.846c4.582 14.375 6.882 21.69 11.493 36.723 3.548.344 5.321.53 8.868.924l-.255-39.532c-.009-1.24.24-2.108.742-2.608.502-.497 1.429-.773 2.778-.825-.012-1.89-.017-2.835-.03-4.724-4.724-.014-7.084-.019-11.808-.03Zm14.624.038.124 18.122c1.58.075 2.369.114 3.95.191-.016-2.148-.022-3.221-.037-5.37-.021-3.038.363-5.213 1.152-6.531.788-1.319 2.081-1.972 3.883-1.946l1.382.023c.104 14.695.158 22.041.263 36.736.01 1.341-.264 2.25-.825 2.719-.559.469-1.562.613-3.002.441l-.778-.092.036 4.864c7.033.919 10.549 1.428 17.576 2.545l-.038-5.109c-.298-.044-.446-.064-.744-.107-1.441-.205-2.45-.622-3.028-1.254-.581-.631-.873-1.632-.884-3.004l-.276-37.606c.554.008.831.014 1.384.023 1.799.03 3.108.765 3.928 2.216.822 1.453 1.243 3.776 1.266 6.952l.044 5.703c1.564.097 2.348.148 3.913.25-.059-7.866-.087-11.801-.144-19.668-11.657-.046-17.488-.066-29.145-.098Zm127.86 43.757c-1.367-4.068-4.175-8.963-8.439-14.373-.56-.708-1.359-1.711-2.39-2.991-4.514-5.512-6.782-9.639-6.79-12.82-.004-2.053.447-3.703 1.353-4.973.907-1.272 2.09-1.895 3.552-1.847 2.495.081 4.512 1.841 6.054 5.381 1.541 3.54 2.516 8.659 2.924 15.3 1.56.187 2.34.28 3.898.471l-.006-27.236-3.439-.027c-.525 1.718-.788 2.571-1.312 4.27-1.17-2.016-2.508-3.53-4.016-4.55-1.51-1.02-3.14-1.518-4.893-1.518-3.104 0-5.731 1.834-7.878 5.358-2.148 3.526-3.213 7.81-3.197 12.999.01 2.76.355 5.34 1.035 7.763.678 2.425 1.752 4.888 3.216 7.422.786 1.394 2.356 3.544 4.701 6.55 2.347 3.006 4.067 5.373 5.163 6.994 1.816 2.647 3.154 5.183 4.018 7.567.86 2.38 1.295 4.761 1.296 7.103.002 2.557-.466 4.466-1.4 5.704-.934 1.238-2.184 1.622-3.745 1.176-2.724-.78-4.925-3.492-6.612-8.03-1.685-4.534-2.707-10.562-3.063-18.177-1.638-.284-2.457-.425-4.098-.705l.089 29.081c1.315.38 1.972.572 3.284.96.679-1.663 1.017-2.5 1.696-4.187 1.188 2.406 2.601 4.414 4.232 6.016 1.628 1.604 3.381 2.724 5.253 3.326 3.411 1.094 6.187.117 8.335-3.115 2.148-3.232 3.223-8.115 3.223-14.499 0-5.494-.68-10.326-2.044-14.393Zm-178.124-43.853c.004 1.757.006 2.637.012 4.396 1.192.07 2.03.349 2.517.834.484.486.73 1.287.733 2.402l.08 25.113c.011 3.22-.31 5.256-.962 6.11-.652.854-1.871 1.243-3.655 1.18-1.807-.063-3.033-.538-3.679-1.43-.645-.892-.973-2.935-.98-6.13l-.054-24.913c-.003-1.128.226-1.924.686-2.39.46-.467 1.275-.73 2.444-.79l.026-4.385-15.08-.01.002 4.35c1.327.003 2.262.243 2.803.721.541.478.812 1.3.813 2.466.014 9.512.02 14.268.032 23.781.007 4.917.903 8.447 2.691 10.608 1.788 2.16 4.74 3.297 8.853 3.452 4.114.153 7.071-.767 8.87-2.833 1.8-2.064 2.69-5.608 2.67-10.618l-.089-24.229c-.005-1.165.239-1.984.733-2.456.492-.472 1.414-.736 2.763-.79-.007-1.77-.01-2.655-.019-4.425-4.884-.008-7.326-.01-12.21-.014Zm107.997 36.014c-.068 6.506-.83 10.742-2.288 12.676-1.455 1.935-4.296 2.478-8.52 1.727-.904-.16-1.357-.24-2.261-.397l-.146-20.272c.352.036.527.054.876.092 1.934.204 3.311.944 4.128 2.229.818 1.284 1.238 3.376 1.258 6.256l.002.367c1.47.205 2.206.309 3.674.52-.062-8.971-.091-13.458-.152-22.428-1.471-.094-2.206-.14-3.676-.231l.002.407c.022 2.882-.365 4.885-1.154 5.996-.79 1.109-2.163 1.57-4.12 1.4-.351-.031-.526-.047-.876-.076-.052-7.423-.08-11.135-.134-18.556l1.587.036c4.181.098 7.021 1.078 8.517 2.977 1.496 1.897 2.352 5.44 2.566 10.596 1.565.115 2.346.173 3.912.292L397.504 176c-11.347-.057-17.02-.084-28.367-.13l.04 5.255c1.28.027 2.187.33 2.722.91.53.58.802 1.598.813 3.046l.259 35.278c.01 1.446-.246 2.422-.771 2.92-.524.497-1.428.64-2.71.44.017 2.101.025 3.153.04 5.254 11.586 2.011 17.373 3.151 28.929 5.698-.059-8.987-.09-13.48-.147-22.467-1.55-.213-2.325-.319-3.876-.527Zm22.355-8.202-2.258-.251-.114-20.959 2.393.071c2.72.081 4.579.907 5.575 2.496.997 1.59 1.504 4.41 1.522 8.43.018 3.96-.518 6.74-1.609 8.311-1.093 1.572-2.93 2.192-5.51 1.902Zm17.118 25.314.018 4.671c.004 1.199-.148 2.125-.459 2.776-.31.65-.723.908-1.237.779-1.03-.259-1.683-2.976-1.912-8.091-.054-1.19-.087-2.08-.111-2.66-.315-5.715-.981-9.75-2-12.097-1.017-2.347-2.693-4.02-5.03-5.022 2.823-.234 4.991-1.677 6.505-4.378 1.512-2.702 2.261-6.458 2.241-11.19-.023-5.921-1.22-10.366-3.592-13.214-2.372-2.847-6.032-4.226-10.979-4.254-5.936-.036-8.904-.052-14.838-.082.013 2.36.021 3.54.036 5.901 1.28.035 2.186.377 2.72 1.033.532.654.804 1.802.812 3.43l.24 39.689c.01 1.628-.247 2.719-.771 3.263-.524.545-1.424.681-2.701.418.013 2.36.021 3.542.036 5.902a550.93 550.93 0 0 1 15.601 3.75l-.03-6.265-.27-.061c-1.3-.296-2.21-.842-2.728-1.634-.52-.79-.784-2.025-.793-3.706l-.096-17.804a5.56 5.56 0 0 1 .537.002c.179.011.439.039.775.084 2.176.299 3.729 1.248 4.656 2.862.928 1.614 1.465 4.384 1.586 8.264.028.898.054 2.221.086 3.958.114 6.08.644 10.378 1.573 12.912.61 1.646 1.393 2.944 2.35 3.891.951.945 2.169 1.627 3.645 2.037 2.436.679 4.198.135 5.286-1.68 1.087-1.816 1.624-5.156 1.607-9.973l-.01-2.904c-1.1-.244-1.651-.365-2.753-.607ZM262.48 214.491c-.521-.479-.781-1.308-.783-2.492l-.002-28.832c0-1.142.248-1.944.744-2.411.493-.465 1.414-.719 2.766-.76l-.002-4.345c-6.019-.002-9.028-.002-15.046.001a4706.59 4706.59 0 0 0-.005 4.352c1.17.063 1.99.327 2.464.792.47.464.707 1.257.705 2.377l-.009 11.24c-3.57.018-5.355.032-8.925.074l.021-11.282c.003-1.125.233-1.922.696-2.39.463-.468 1.29-.748 2.481-.836l.007-4.326c-6.017.003-9.027.006-15.044.012l-.015 4.404c1.283-.006 2.188.226 2.716.692.527.468.79 1.3.786 2.496l-.079 29.142c-.004 1.196-.272 2.044-.803 2.544-.533.5-1.442.774-2.729.826-.007 1.762-.008 2.643-.013 4.406 6.045-.271 9.069-.37 15.117-.495l.007-4.357c-1.175-.043-1.999-.288-2.472-.747-.474-.456-.71-1.259-.707-2.404.008-5.213.013-7.82.023-13.033 3.572-.051 5.357-.068 8.929-.091l-.01 12.984c0 1.143-.233 1.944-.695 2.404-.466.461-1.296.74-2.494.844l-.004 4.353c6.048-.101 9.072-.114 15.12-.07l-.001-4.346c-1.31-.009-2.225-.252-2.744-.726Zm-121.683-10.96c-.072 10.002-.437 16.293-1.097 18.898-.657 2.607-1.841 4.071-3.55 4.38-1.731.315-2.902-.738-3.513-3.194-.612-2.454-.882-8.852-.81-19.171.07-10.288.43-16.73 1.077-19.305.647-2.575 1.836-3.868 3.568-3.908 1.71-.039 2.875 1.186 3.497 3.653.623 2.467.899 8.673.828 18.647Zm5.898-22.799c-1.126-2.005-2.544-3.519-4.235-4.524-1.69-1.008-3.67-1.524-5.943-1.523-2.27 0-4.253.52-5.946 1.59-1.694 1.068-3.11 2.704-4.248 4.905-1.067 2.061-1.85 4.956-2.334 8.67-.485 3.715-.749 8.903-.792 15.537-.042 6.605.154 11.726.59 15.337.436 3.612 1.174 6.337 2.217 8.167 1.13 1.98 2.53 3.332 4.196 4.07 1.665.739 3.633.858 5.904.395 2.247-.457 4.23-1.379 5.947-2.744 1.716-1.364 3.153-3.183 4.318-5.419 1.039-1.992 1.81-4.685 2.284-8.08.474-3.393.735-8.188.78-14.4.046-6.212-.145-10.962-.569-14.276-.425-3.313-1.147-5.884-2.17-7.705Zm-45.723 23.128-2.256.26c.041-8.645.061-12.97.104-21.615l2.393-.074c2.719-.083 4.57.624 5.551 2.088.981 1.464 1.46 4.11 1.439 7.964-.022 3.793-.587 6.549-1.695 8.297-1.11 1.752-2.956 2.784-5.536 3.08Zm16.89 22.975c-.007 1.064-.17 1.95-.489 2.664-.318.713-.734 1.125-1.25 1.234-1.034.218-1.663-1.976-1.844-6.556-.042-1.068-.067-1.868-.087-2.39-.261-5.112-.89-8.608-1.888-10.496-.999-1.887-2.664-3.02-4.995-3.379 2.832-.963 5.02-2.861 6.563-5.665 1.543-2.806 2.328-6.302 2.353-10.562.034-5.332-1.122-9.214-3.468-11.752-2.345-2.537-5.992-3.842-10.938-3.813-5.936.036-8.904.053-14.84.092l-.026 6.676c1.282-.044 2.186.283 2.711.97.524.687.783 1.926.776 3.72l-.177 43.68c-.008 1.793-.276 3.113-.804 3.963-.53.852-1.431 1.44-2.707 1.762l-.025 6.674c6.225-1.74 9.34-2.569 15.576-4.152l.032-6.273-.268.061c-1.3.299-2.206.166-2.718-.412-.513-.577-.764-1.737-.756-3.47l.09-18.362c.178-.058.36-.108.538-.149.179-.04.438-.085.775-.133 2.175-.31 3.721.212 4.633 1.529.912 1.319 1.42 3.85 1.506 7.587.018.866.032 2.144.046 3.824.052 5.874.54 9.83 1.447 11.828.596 1.294 1.37 2.149 2.319 2.569.949.42 2.164.445 3.644.09 2.444-.59 4.222-1.947 5.333-4.053 1.11-2.105 1.681-5.234 1.708-9.42l.016-2.522a628.77 628.77 0 0 0-2.761.492l-.026 4.144Zm-63.309-21.55c1.572-.202 2.359-.302 3.931-.501l.004-8.324c.003-4.71.403-8.128 1.201-10.22.799-2.09 2.096-3.153 3.894-3.216.553-.02.829-.03 1.382-.048l-.072 54.495c-.002 1.989-.282 3.46-.842 4.42-.559.96-1.551 1.648-2.978 2.062-.308.091-.462.135-.769.224-.003 2.979-.004 4.467-.005 7.446 6.949-2.248 10.429-3.323 17.396-5.374l.02-6.925c-.296.077-.443.117-.739.196-1.43.381-2.428.27-2.996-.348-.567-.619-.85-1.895-.845-3.816l.12-52.661 1.382-.047c1.796-.059 3.098.876 3.9 2.77.803 1.9 1.199 4.958 1.186 9.205-.008 3.05-.014 4.574-.023 7.625 1.561-.176 2.341-.263 3.903-.435l.088-25.58c-11.656.078-17.484.119-29.138.21v28.842Zm116.243-24.517c1.19.053 2.027.345 2.507.876.478.53.714 1.419.706 2.663l-.201 28.036c-.025 3.594-.37 5.918-1.03 6.985-.66 1.064-1.88 1.713-3.66 1.948-1.803.237-3.02-.095-3.655-1.016-.635-.921-.939-3.23-.911-6.919.084-11.51.127-17.266.21-28.777.01-1.304.247-2.23.713-2.78.465-.55 1.282-.87 2.453-.967l.07-5.008c-6.031.022-9.047.032-15.078.058l-.039 5.24c1.327-.027 2.258.24 2.794.796.536.557.797 1.526.788 2.913l-.21 28.297c-.044 5.852.815 9.916 2.576 12.143 1.759 2.228 4.69 2.976 8.791 2.355 4.101-.62 7.063-2.235 8.883-4.843 1.821-2.61 2.749-6.623 2.788-12.101l.184-26.5c.009-1.274.262-2.176.761-2.706.499-.526 1.424-.834 2.773-.925l.034-4.773c-4.886.014-7.327.021-12.211.037-.015 1.987-.023 2.98-.036 4.968Zm14.672 13.06c1.58-.075 2.37-.11 3.95-.18.014-2.101.022-3.15.035-5.253.019-2.972.434-5.12 1.242-6.432.805-1.312 2.109-1.974 3.908-1.994l1.384-.017-.215 34.821c-.008 1.271-.296 2.188-.863 2.752-.568.564-1.573.918-3.016 1.059l-.778.077-.03 4.715c7.039-.777 10.56-1.116 17.606-1.696l.024-4.55-.746.055c-1.444.11-2.453-.061-3.025-.518-.572-.456-.856-1.311-.85-2.562.078-13.696.117-20.545.193-34.241l1.384-.013c1.8-.018 3.102.609 3.905 1.87.803 1.262 1.199 3.291 1.184 6.095l-.027 5.032c1.568-.048 2.352-.07 3.92-.116.032-6.817.048-10.225.082-17.043-11.659.02-17.487.034-29.146.066l-.121 18.073" />
    <path fill="#fff"
        d="M417.187 200.836c2.228.228 2.729-.505 2.922-.784.432-.623 1.154-2.33 1.134-6.777-.023-4.602-.71-6.378-1.116-7.026-.451-.721-1.468-1.133-3.027-1.23Zm.758 5.373c-.457 0-.94-.026-1.452-.084h-.001l-4.613-.51-.142-26.096 5.155.152c3.657.109 6.267 1.369 7.753 3.746 1.276 2.032 1.908 5.25 1.931 9.832.02 4.575-.661 7.795-2.087 9.846-1.022 1.473-2.966 3.114-6.544 3.114Zm-316.472-21.117-.077 16.004c2.015-.41 2.639-1.396 2.859-1.743.573-.902 1.258-2.828 1.281-6.885.025-4.468-.681-6.01-.987-6.467-.518-.772-1.894-.936-3.076-.909Zm-5.438 22.027.132-27.202 4.964-.152c3.684-.116 6.32.987 7.849 3.268 1.315 1.964 1.915 4.971 1.89 9.466-.025 4.333-.714 7.509-2.111 9.71-1.072 1.692-3.242 3.815-7.483 4.3Zm40.6-23.216c-.658.006-1.096 1.692-1.144 1.884-.407 1.621-.911 6.176-.998 18.676-.086 12.526.351 16.978.731 18.506.175.7.357 1.048.459 1.202.818-.258 1.268-1.747 1.432-2.395.416-1.643.928-6.144 1.016-18.265.088-12.072-.358-16.438-.746-17.974-.346-1.37-.746-1.632-.75-1.634Zm-1.002 45.618c-1.67 0-4.457-.729-5.584-5.264-.428-1.716-.986-5.642-.889-19.832.073-10.608.452-17.13 1.159-19.937 1.269-5.061 4.361-5.884 6.092-5.924 1.758-.047 4.877.644 6.145 5.667.437 1.729 1.007 5.614.908 19.318-.075 10.302-.461 16.691-1.177 19.532-1.167 4.615-3.723 6.002-5.662 6.352a5.599 5.599 0 0 1-.992.088Zm203.755-51.089.019 2.719c.062-.12.128-.236.196-.35a6.427 6.427 0 0 1 2.422-2.361l-2.637-.008Zm-33.925-.077c.282.168.541.358.778.576.631.577 1.084 1.322 1.359 2.226l-.015-2.798Zm54.741.146c1.197.599 2.172 1.543 2.887 2.808.045.08.089.16.13.242l-.022-3.038-2.995-.012Zm-35.047-.106c.544.268 1.012.61 1.41 1.032.661.702 1.101 1.614 1.316 2.724.22-1.134.681-2.051 1.374-2.742.42-.414.923-.748 1.512-1Zm-74.574 4.081Zm32.608.017Zm14.724.107Zm-51.064.21Zm4.044.002Zm31.965.032Zm4.35.036Zm10.373.064Zm25.01.019h.002Zm-2.32-.06c.871 2.796 1.671 5.374 2.472 7.972l-.045-7.054a3.474 3.474 0 0 0-.06-.694 3.514 3.514 0 0 0-.721-.11Zm-73.17-.171c-.015.115-.028.27-.028.48l-.016 8.579c1.244-.014 2.341-.022 3.589-.031l.007-8.588c0-.184-.01-.327-.022-.433a4.563 4.563 0 0 0-.622-.072l-1.534-.08-.693.052a4.427 4.427 0 0 0-.681.093Zm212.778 3.101c.16.319.315.651.467.995.673 1.545 1.24 3.321 1.708 5.347l-.003-9.224-1.336 4.321Zm-76.145-1.689.093 13.073a.5.5 0 0 0 .178-.146c.112-.158.682-1.13.66-4.43l-.003-3.262 5.803.361c-.44-2.14-1.014-3.19-1.408-3.69-.834-1.058-2.663-1.71-5.323-1.906Zm67.936 1.03c-.359 0-.747.09-1.204.734-.572.801-.861 1.952-.857 3.417.005 2.386 2.086 6.132 6.185 11.138a335.942 335.942 0 0 1 2.373 2.969l-.004-.075c-.388-6.32-1.3-11.164-2.708-14.398-1.617-3.714-3.182-3.764-3.697-3.782a1.87 1.87 0 0 0-.088-.002ZM290 178.335c.315.194.599.418.853.673 1 1.002 1.51 2.441 1.516 4.278l.079 25.114c.005 1.461-.052 2.697-.176 3.745.205-1.212.33-2.708.324-4.557l-.092-24.23c-.005-1.92.519-3.398 1.557-4.393.248-.236.523-.444.832-.625Zm-42.957 34.27c.137.023.33.044.589.055l1.288.046.963-.082c.334-.03.566-.071.722-.108.014-.118.026-.275.026-.486l.008-10.296c-1.247.011-2.346.022-3.598.036l-.018 10.407c0 .179.008.32.02.428Zm17.402.13Zm19.224.003c.024 0 .398.254 1.59.296.893.032 1.298-.098 1.434-.156.114-.297.432-1.404.422-4.461l-.079-25.112a3.32 3.32 0 0 0-.033-.49 4.117 4.117 0 0 0-.712-.094l-1.29-.077-1.282.065a4.656 4.656 0 0 0-.58.063c-.014.11-.023.258-.023.449l.056 24.913c.008 3.611.459 4.534.496 4.607l.001-.003Zm-50.472.426Zm69.446.941Zm-46.667-17.039-.012 14.97c-.003 1.877-.503 3.322-1.485 4.296a4.51 4.51 0 0 1-.72.58c2.653-.034 4.826-.043 7.45-.038a4.388 4.388 0 0 1-.532-.417l-.001-.003c-1.09-1.001-1.644-2.5-1.644-4.454l-.004-28.832c0-1.904.533-3.37 1.588-4.358.192-.18.401-.344.63-.492h-7.478c.261.171.501.363.719.578.998.985 1.504 2.425 1.501 4.282Zm-19.537-18.737c.204.13.396.276.576.435 1.126 1 1.692 2.513 1.688 4.5l-.08 29.142c-.007 1.954-.559 3.459-1.642 4.479-.173.163-.36.312-.557.45 2.644-.106 4.843-.177 7.557-.242a4.535 4.535 0 0 1-.772-.597c-1.013-.98-1.524-2.436-1.52-4.33l.028-14.982h-.001l.025-13.982c.004-1.846.498-3.28 1.467-4.26.227-.23.479-.437.757-.618Zm36.132-.008c.186.123.362.256.526.4 1.138 1.008 1.714 2.508 1.716 4.463l.031 23.761c.004 4.212.723 7.293 2.079 8.932 1.262 1.525 3.584 2.363 6.9 2.487.48.018.941.021 1.378.004l-.13-.004c-2.664-.094-4.598-.946-5.746-2.531-1.02-1.412-1.478-3.783-1.486-7.688l-.056-24.912c-.004-1.85.486-3.287 1.456-4.27.237-.24.5-.453.79-.638Zm32.896 40.145c1.673.116 3.122.224 4.749.354a5 5 0 0 1-.972-.806c-.703-.75-1.157-1.724-1.359-2.904-.245 1.159-.757 2.083-1.53 2.755-.271.235-.566.435-.888.601Zm18.344 1.57c.82.08 1.556.154 2.28.229l-3.12-10.33a2729.165 2729.165 0 0 0-9.702-31.565l-2.549-.005 2.11 6.62c4.387 13.759 6.685 21.05 10.98 35.05Zm60.208 3.406.072.014c1.78.314 4.912.642 5.928-.706.342-.457 1.006-1.745 1.412-5.141l-.651-.095a894.98 894.98 0 0 0-3.664-.517l-2.277-.319-.024-2.666c-.022-3.22-.594-4.462-.839-4.846l-.061-.094Zm-37.642-.749c3.772.504 6.608.91 10.215 1.468-.783-.35-1.425-.804-1.943-1.368-1.036-1.13-1.569-2.743-1.582-4.79l-.291-39.529c-.99-.002-1.975-.005-2.967-.009l.276 38.501c.018 2.167-.58 3.776-1.776 4.78-.534.45-1.174.764-1.932.947Zm54.695 3.981 2.313.475c.079.016.148.03.212.039.035-.248.062-.603.059-1.092l-.24-39.688c-.005-1.03-.139-1.527-.207-1.714-.106-.036-.33-.089-.73-.1l-2.252-.061.086 13.633-6.605-.496.077 11.23 1.006.134c1.554.21 2.33.315 3.885.528l2.287.316Zm-28.892.056c2.385.418 4.521.8 6.536 1.171l-.183-25.45 3.846.4c3.402.36 5.166 2.025 6.054 3.385l-.042-6.127a1.347 1.347 0 0 0-.038.055c-.944 1.325-2.838 2.832-6.525 2.512l-3.296-.287-.17-23.73 4.334.1c5.075.118 8.527 1.423 10.552 3.99.653.83 1.203 1.853 1.653 3.083l-.046-7.179c-8.794-.044-14.252-.068-23.031-.104l.003.355c.812.294 1.492.738 2.033 1.325 1.007 1.099 1.503 2.679 1.519 4.833l.258 35.278c.016 2.241-.506 3.834-1.6 4.873a4.433 4.433 0 0 1-1.86 1.041Zm45.075-13.509.078 14.51c.01 1.685.32 2.207.358 2.262.086.133.425.343 1.089.495l1.017.23a94.17 94.17 0 0 1-.253-5.553c-.03-1.725-.056-3.035-.084-3.924-.143-4.488-.833-6.325-1.233-7.02a2.632 2.632 0 0 0-.972-1Zm-36.2 15.115c4.752.898 9.052 1.784 14.713 3.017l-.053-8.259c-.392 1.163-.868 2.111-1.436 2.864-2.083 2.763-5.827 3.686-11.119 2.748Zm24.485 5.198a493.18 493.18 0 0 1 10.264 2.455l-.004-.904c-1.101-.513-1.961-1.239-2.57-2.168-.815-1.244-1.218-2.93-1.23-5.156l-.11-20.39.858-.03 10.207-.852c1.937-.161 3.336-1.123 4.4-3.024 1.28-2.285 1.92-5.608 1.902-9.877-.02-5.298-1.021-9.172-2.974-11.518-1.826-2.192-4.754-3.269-8.946-3.294l-12.14-.068.007 1.034c.861.338 1.575.85 2.133 1.534.938 1.154 1.399 2.821 1.412 5.098l.24 39.618c.014 2.481-.466 4.11-1.514 5.2a4.31 4.31 0 0 1-1.943 1.153Zm41.716-16.654.001.029c.339 7.264 1.315 13.11 2.899 17.372.95 2.556 2.561 5.741 4.844 6.393.592.17.672.063.883-.217.324-.428.865-1.53.864-4.096-.003-2.033-.387-4.119-1.139-6.196-.793-2.192-2.041-4.536-3.708-6.967-1.133-1.673-2.767-3.896-4.644-6.318Zm-4.056 12.004.037 11.937 1.902-4.73c-.788-2.13-1.432-4.522-1.939-7.207Zm-20.052-16.755c.979 2.025 1.517 4.963 1.643 8.943.028.905.053 2.236.086 3.988.135 7.152.842 10.498 1.41 12.048.469 1.265 1.05 2.248 1.722 2.913.636.63 1.448 1.076 2.483 1.364 1.716.477 2.032-.055 2.285-.481.154-.258.342-.663.524-1.295a3.672 3.672 0 0 1-1.721-.007c-2.907-.73-3.657-4.581-3.925-10.558l-.111-2.672c-.37-6.66-1.173-9.739-1.783-11.143-.584-1.348-1.445-2.37-2.613-3.1Zm25.815 30.707c.812 1.332 1.717 2.492 2.702 3.462 1.34 1.318 2.752 2.222 4.199 2.687 2.3.737 3.836.145 5.297-2.052 1.844-2.773 2.779-7.155 2.779-13.023 0-5.216-.64-9.773-1.905-13.545-1.307-3.892-4.075-8.585-8.006-13.57a319.923 319.923 0 0 0-2.372-2.967c-5.09-6.218-7.37-10.691-7.38-14.49-.006-2.601.616-4.798 1.85-6.528 1.438-2.016 3.401-3.038 5.809-2.962 2.77.09 5.083 1.492 6.896 4.177l-1.17-2.015c-.96-1.65-2.038-2.889-3.205-3.68-1.056-.713-2.169-1.06-3.4-1.06-.769 0-3.113 0-5.6 4.079-1.904 3.127-2.821 6.923-2.806 11.603.006 2.493.321 4.865.934 7.052.619 2.209 1.587 4.436 2.958 6.809.88 1.557 2.986 4.308 4.496 6.243 2.722 3.492 4.369 5.809 5.268 7.14 1.913 2.789 3.369 5.536 4.317 8.152.961 2.66 1.453 5.354 1.456 8.008.003 3.188-.632 5.581-1.94 7.313-1.587 2.105-3.997 2.88-6.607 2.133-1.693-.484-3.221-1.476-4.57-2.966Zm8.604 11.777c-1.07 0-2.184-.181-3.332-.55-2.248-.722-4.372-2.055-6.311-3.963a21.787 21.787 0 0 1-1.85-2.078l-.646 1.587-2.313-.683c-1.31-.385-1.963-.577-3.271-.954l-1.92-.556-.015-4.875c-.169.4-.356.767-.556 1.103-.993 1.66-3.393 4.241-8.289 2.88-1.91-.531-3.528-1.443-4.81-2.715-1.226-1.213-2.226-2.848-2.97-4.855-.045-.122-.09-.25-.133-.378l.022 4.268-3.34-.844a546.984 546.984 0 0 0-15.537-3.736l-4.413-.988c-11.559-2.548-17.212-3.662-28.808-5.674l-2.195-.38-.079-10.625 3.104.488c.142.023.264.036.366.044.021-.183.036-.43.033-.75l-.259-35.278c-.005-.667-.08-1.039-.13-1.216-.134-.037-.382-.084-.794-.093l-.549-.011.108 14.592-9.252-.595-.06-8.185c-.025-3.555-.588-5.07-.92-5.657a1.856 1.856 0 0 0-.301-.414l.253 34.446c.007.914.18 1.212.193 1.236.01 0 .342.248 1.427.402l3.016.43.079 10.553-3.107-.495c-7.035-1.117-10.47-1.614-17.504-2.534l-2.307-.3-.07-10.207 3.782.444c.363.044.639.059.822.05.014-.137.022-.315.021-.542l-.241-33.844c-.179.124-.264.268-.331.38-.3.499-.796 1.83-.773 5.144l.054 8.192-9.285-.452-.09-13.287-.069.003a4.966 4.966 0 0 0-.916.103c-.021.14-.04.349-.038.648l.276 42.53-2.98-.332a828.45 828.45 0 0 0-2.062-.226l.01 1.745-.544-1.803c-2.047-.221-3.68-.388-6.238-.636l-1.772-.172-.52-1.7a2983.883 2983.883 0 0 0-6.186-19.982l.052 10.268c.001.424.045.665.076.782.129.056.404.15.909.218l2.305.305.05 9.801-2.906-.245c-4.708-.397-7.025-.57-11.805-.885l-2.481-.163-.043-9.803 2.836.168c.292.018.508.014.664.002.01-.11.019-.251.017-.426l-.14-29.856a3.6 3.6 0 0 0-.041-.586 4.55 4.55 0 0 0-.839-.072l-2.632-.07-.293.012c-.433.018-.728.06-.916.099-.012.115-.024.27-.023.475l.091 24.229c.021 5.737-1.068 9.787-3.328 12.38-2.324 2.67-6.01 3.936-10.979 3.744-4.897-.184-8.533-1.67-10.806-4.416-2.218-2.679-3.298-6.704-3.304-12.305l-.031-23.782c0-.196-.012-.344-.028-.449a4.78 4.78 0 0 0-.925-.073l-2.662-.023-.58.017c-.424.014-.716.051-.902.088-.012.104-.022.24-.022.418l.004 28.832c0 .212.014.37.027.485.175.032.447.063.848.065l2.647.018.008 9.682-2.688-.02c-6.064-.044-9.018-.03-15.058.07l-2.566.048c-6.039.125-8.994.221-15.055.49l-2.796.126.033-9.747 2.551-.112c.47-.019.763-.073.927-.117.024-.123.045-.315.046-.598l.08-29.138c0-.199-.01-.352-.024-.464a4.465 4.465 0 0 0-.797-.051l-2.688.013.03-9.749 35.967-.016 41.703.041 1.46.003 8.172.015.583 1.866c.593 1.892 1.142 3.65 1.662 5.315l-.042-7.177 17.138.046.178-.002c11.658.033 17.488.053 29.146.1l.595.002v-.001l2.696.01c11.348.047 17.023.073 28.37.131l19.85.108c5.78.035 10.159 1.788 13.012 5.215 2.768 3.324 4.185 8.34 4.21 14.91.02 5.2-.847 9.406-2.582 12.503-.896 1.602-2.021 2.887-3.34 3.835.801.93 1.464 1.999 1.985 3.2 1.138 2.619 1.858 6.783 2.202 12.725l5.005 1.102-.041-13.764 3.122.53c1.644.28 2.467.422 4.111.708l.339.06c-1.754-2.305-2.827-3.854-3.478-5.009-1.585-2.74-2.721-5.37-3.462-8.013-.744-2.651-1.126-5.503-1.134-8.476-.017-5.691 1.154-10.4 3.584-14.392 3.347-5.488 7.37-6.639 10.156-6.639 2.298 0 4.447.664 6.387 1.976.503.339.988.721 1.457 1.147l.408-1.339 8.075.06.01 32.893-7.437-.897c3.428 4.663 5.823 8.99 7.132 12.89h.002c1.448 4.32 2.182 9.449 2.182 15.243 0 6.936-1.234 12.312-3.67 15.975-2.07 3.115-4.854 4.728-8.036 4.728Zm-247.599-76.248a6.575 6.575 0 0 1 1.857 1.924c.075.119.15.241.22.368l.011-2.296-2.088.004Zm-21.73.05-.017 2.498c.064-.119.132-.235.202-.348.449-.73 1.12-1.53 2.105-2.156-.74.001-1.501.004-2.29.007Zm-6.198 4.994h-.001Zm-14.667.221Zm6.104-5.012c.719.292 1.32.706 1.802 1.238.954 1.057 1.41 2.518 1.396 4.472l-.2 28.034a51.782 51.782 0 0 1-.055 2.084c.127-1.16.193-2.426.203-3.797l.186-26.5c.012-1.99.499-3.468 1.487-4.516.481-.508 1.079-.905 1.803-1.195l-6.62.022Zm32.962 35.86Zm-38.807 4.171c.163.032.51.065 1.137-.016.902-.119 1.536-.377 1.742-.71.06-.1.598-1.13.63-5.6l.2-28.034a4.093 4.093 0 0 0-.056-.785 3.616 3.616 0 0 0-.61-.072l-1.287-.058-1.243.102c-.312.025-.512.069-.63.102a5.643 5.643 0 0 0-.086 1.008l-.21 28.776c-.027 3.552.276 4.872.413 5.287Zm31.03-40.26-.223 36.401c-.012 1.992-.567 3.548-1.647 4.626a5.12 5.12 0 0 1-1.001.77c2.965-.309 5.465-.548 8.532-.813a4.562 4.562 0 0 1-1.043-.621c-1.24-.99-1.864-2.559-1.85-4.663l.198-35.708-2.965.008Zm-43.098.415c.812.269 1.492.688 2.033 1.252 1.047 1.089 1.548 2.653 1.532 4.781l-.209 28.297c-.048 6.5 1.061 9.282 2.001 10.47.407.513 1.642 2.078 6.3 1.37 2.268-.342 4.059-1.005 5.415-2.01-.895.476-1.953.796-3.17.956-3.573.472-5.346-.906-6.198-2.144-.708-1.027-1.425-2.832-1.383-8.454l.211-28.777c.015-1.968.456-3.433 1.343-4.483a4.923 4.923 0 0 1 1.85-1.341l.004-.233-9.726.036Zm-54.225 34.546-.078 16.074c-.002.596.03 1.014.071 1.301.043-.008.09-.019.139-.03l2.336-.534c-.175-1.837-.271-3.976-.294-6.43-.013-1.665-.026-2.93-.045-3.787-.1-4.447-.815-5.815-1.032-6.13-.084-.12-.293-.424-1.097-.464Zm35.184-35.998h-.004c-1.79.001-3.27.386-4.524 1.178-1.279.807-2.39 2.11-3.304 3.876-.923 1.784-1.615 4.404-2.058 7.791-.468 3.59-.728 8.708-.769 15.208-.041 6.47.15 11.517.57 15.001.393 3.246 1.027 5.656 1.887 7.166.843 1.477 1.811 2.444 2.958 2.952 1.14.505 2.541.576 4.292.221 1.813-.37 3.433-1.116 4.818-2.219 1.402-1.114 2.618-2.65 3.615-4.564.907-1.738 1.583-4.166 2.008-7.216.456-3.268.71-7.994.755-14.052.044-6.052-.14-10.734-.547-13.918-.383-2.962-1.004-5.23-1.85-6.739-.89-1.584-1.99-2.775-3.273-3.537-1.296-.774-2.792-1.148-4.574-1.148Zm-35.068 53.916Zm5.164-20.764c.072.093.14.186.204.278 1.25 1.807 1.88 4.682 1.976 9.042.021.874.034 2.164.048 3.861.064 7.176.785 9.815 1.209 10.748.297.647.644 1.09.97 1.232.175.079.72.23 1.94-.064 1.489-.359 2.55-1.063 3.3-2.197a3.292 3.292 0 0 1-2.32-.698c-1.486-1.157-2.14-3.518-2.331-8.424l-.088-2.394c-.311-6.118-1.124-8.486-1.582-9.35-.605-1.145-1.544-1.76-3.042-1.99ZM76.045 237.5Zm13.367 1.294-.005 1.349a511.684 511.684 0 0 1 10.24-2.715l.008-1.446a4.243 4.243 0 0 1-2.3-1.332c-.986-1.108-1.44-2.779-1.427-5.256l.097-20.287.498-.163-.383-.058 10.312-3.502c2.192-.744 3.855-2.19 5.084-4.424 1.319-2.4 2-5.526 2.023-9.293.028-4.575-.9-7.915-2.76-9.924-1.836-1.988-4.862-2.993-8.964-2.957l-12.2.076-.007 1.777a4.893 4.893 0 0 1 2.153 1.599c.914 1.196 1.335 2.894 1.327 5.348l-.179 43.682c-.008 2.311-.402 4.063-1.204 5.356a6.174 6.174 0 0 1-2.313 2.17Zm-26.443 7.312-.001 1.854a521.53 521.53 0 0 1 12.065-3.708l.006-1.869c-1.48-.116-2.432-.767-3.024-1.41-1.062-1.155-1.552-2.943-1.547-5.625l.127-55.233 3.953-.133c2.943-.102 5.204 1.465 6.447 4.396l.001.005.019-5.467c-9.083.062-14.702.102-23.795.171v6.145c1.592-4.105 4.61-4.816 6.27-4.873l4.145-.144-.075 57.257c-.004 2.488-.396 4.372-1.204 5.759-.737 1.265-1.872 2.228-3.387 2.875Zm-5.338 9.181.008-13.11 2.694-.786c.504-.147 1.164-.413 1.414-.843.142-.246.477-1.041.48-3.082l.065-50.55c-.037.086-.073.176-.112.274-.465 1.222-1.023 3.822-1.025 9.269l-.006 10.675-9.262 1.181v-34.521l2.645-.02c11.656-.09 17.484-.131 29.14-.208l18.132-.114c5.676.002 10.016 1.539 12.912 4.67 2.847 3.078 4.213 7.521 4.176 13.578-.028 4.728-.907 8.599-2.683 11.831-.909 1.65-2.012 3.047-3.302 4.18a9.001 9.001 0 0 1 1.754 2.332c1.102 2.085 1.779 5.327 2.107 10.136l4.201-.745c-.329-3.567-.476-8.287-.438-14.067.042-6.717.317-12.053.813-15.863.532-4.06 1.384-7.182 2.61-9.55 1.357-2.622 3.103-4.619 5.195-5.936 2.102-1.327 4.58-2 7.367-2.002h.005c2.735 0 5.192.639 7.306 1.9 2.093 1.246 3.841 3.1 5.193 5.51.45.798.844 1.696 1.187 2.7l.066-8.918 35.454-.122c11.562-.031 17.392-.044 29.002-.064l2.686-.006-.108 22.308-9.254.272.04-7.794c.016-2.974-.474-4.191-.766-4.651-.07-.108-.168-.263-.388-.393l-.176 31.361c-.002.17.006.307.016.413.208.019.526.027.99-.006l3.571-.267.043 2.884-.04 6.993-2.434.2c-7.052.58-10.492.912-17.53 1.69l-2.979.328.063-10.112 3.17-.312c.824-.083 1.218-.227 1.367-.295.037-.113.103-.38.105-.88l.196-31.783c-.181.134-.272.28-.337.387-.305.497-.823 1.815-.844 5.053l-.052 7.787-9.285.423.09-13.399a3.94 3.94 0 0 0-.654.119 4.048 4.048 0 0 0-.076.841l-.187 26.501c-.041 6.067-1.11 10.519-3.267 13.608-2.245 3.219-5.836 5.223-10.672 5.955-5.116.77-8.916-.348-11.281-3.337-2.168-2.744-3.197-7.263-3.15-13.816l.21-28.299c.004-.493-.04-.8-.077-.975a4.038 4.038 0 0 0-.783-.049l-2.225.047c.33 1.277.594 2.698.797 4.277.445 3.47.639 8.257.592 14.636-.047 6.379-.31 11.203-.807 14.75-.51 3.655-1.37 6.665-2.56 8.945-1.344 2.578-3.034 4.689-5.022 6.272-2.05 1.63-4.431 2.73-7.075 3.27-2.83.579-5.361.386-7.519-.57-2.193-.974-4.021-2.718-5.429-5.187a13.96 13.96 0 0 1-.627-1.248c-.3 2.617-.89 4.737-1.78 6.423-1.46 2.769-3.904 4.637-7.066 5.398-2.06.495-3.86.415-5.347-.242-1.556-.688-2.788-1.998-3.661-3.891a8.18 8.18 0 0 1-.219-.528l-.03 5.459-2 .506a553.815 553.815 0 0 0-15.514 4.136l-3.397.95.045-12.272 2.008-.507c.324-.081.897-.265 1.095-.584.064-.101.394-.728.401-2.564l.179-43.683c.002-1.161-.127-1.744-.204-1.985a2.301 2.301 0 0 0-.528-.028l-.718.024-.062 18.625-9.239 1.034.032-10.62c.015-4.803-.521-7.087-.973-8.158a4.362 4.362 0 0 0-.17-.357l-.112 49.261c-.001.811.056 1.339.115 1.667.104-.019.227-.047.37-.084l4.105-1.095-.035 12.396-1.91.562c-6.966 2.052-10.367 3.101-17.327 5.353l-3.488 1.128" />
    <path fill="#23356a"
        d="M322.079 175.721c.01 1.855.016 2.782.028 4.636 1.194.083 2.03.382 2.52.899.488.519.733 1.37.741 2.55l.157 25.357c-4.128-13.674-6.188-20.342-10.293-33.458l-13.527-.024.02 4.475c1.28.01 2.188.259 2.719.744.53.487.8 1.344.804 2.57l.141 29.854c.006 1.225-.256 2.068-.784 2.528-.529.459-1.437.648-2.722.572l.02 4.475c4.742.31 7.114.489 11.856.888-.011-1.824-.015-2.736-.024-4.56-1.199-.16-2.046-.504-2.544-1.036-.499-.532-.752-1.382-.759-2.552l-.141-27.846c4.582 14.375 6.882 21.69 11.493 36.723 3.548.344 5.321.53 8.868.924l-.255-39.532c-.009-1.24.24-2.108.742-2.608.502-.497 1.429-.773 2.778-.825-.012-1.89-.017-2.835-.03-4.724-4.724-.014-7.084-.019-11.808-.03Zm14.624.038.124 18.122c1.58.075 2.369.114 3.95.191-.016-2.148-.022-3.221-.037-5.37-.021-3.038.363-5.213 1.152-6.531.788-1.319 2.081-1.972 3.883-1.946l1.382.023c.104 14.695.158 22.041.263 36.736.01 1.341-.264 2.25-.825 2.719-.559.469-1.562.613-3.002.441l-.778-.092.036 4.864c7.033.919 10.549 1.428 17.576 2.545l-.038-5.109c-.298-.044-.446-.064-.744-.107-1.441-.205-2.45-.622-3.028-1.254-.581-.631-.873-1.632-.884-3.004l-.276-37.606c.554.008.831.014 1.384.023 1.799.03 3.108.765 3.928 2.216.822 1.453 1.243 3.776 1.266 6.952l.044 5.703c1.564.097 2.348.148 3.913.25-.059-7.866-.087-11.801-.144-19.668-11.657-.046-17.488-.066-29.145-.098Zm127.86 43.757c-1.367-4.068-4.175-8.963-8.439-14.373-.56-.708-1.359-1.711-2.39-2.991-4.514-5.512-6.782-9.639-6.79-12.82-.004-2.053.447-3.703 1.353-4.973.907-1.272 2.09-1.895 3.552-1.847 2.495.081 4.512 1.841 6.054 5.381 1.541 3.54 2.516 8.659 2.924 15.3 1.56.187 2.34.28 3.898.471l-.006-27.236-3.439-.027c-.525 1.718-.788 2.571-1.312 4.27-1.17-2.016-2.508-3.53-4.016-4.55-1.51-1.02-3.14-1.518-4.893-1.518-3.104 0-5.731 1.834-7.878 5.358-2.148 3.526-3.213 7.81-3.197 12.999.01 2.76.355 5.34 1.035 7.763.678 2.425 1.752 4.888 3.216 7.422.786 1.394 2.356 3.544 4.701 6.55 2.347 3.006 4.067 5.373 5.163 6.994 1.816 2.647 3.154 5.183 4.018 7.567.86 2.38 1.295 4.761 1.296 7.103.002 2.557-.466 4.466-1.4 5.704-.934 1.238-2.184 1.622-3.745 1.176-2.724-.78-4.925-3.492-6.612-8.03-1.685-4.534-2.707-10.562-3.063-18.177-1.638-.284-2.457-.425-4.098-.705l.089 29.081c1.315.38 1.972.572 3.284.96.679-1.663 1.017-2.5 1.696-4.187 1.188 2.406 2.601 4.414 4.232 6.016 1.628 1.604 3.381 2.724 5.253 3.326 3.411 1.094 6.187.117 8.335-3.115 2.148-3.232 3.223-8.115 3.223-14.499 0-5.494-.68-10.326-2.044-14.393Zm-178.124-43.853c.004 1.757.006 2.637.012 4.396 1.192.07 2.03.349 2.517.834.484.486.73 1.287.733 2.402l.08 25.113c.011 3.22-.31 5.256-.962 6.11-.652.854-1.871 1.243-3.655 1.18-1.807-.063-3.033-.538-3.679-1.43-.645-.892-.973-2.935-.98-6.13l-.054-24.913c-.003-1.128.226-1.924.686-2.39.46-.467 1.275-.73 2.444-.79l.026-4.385-15.08-.01.002 4.35c1.327.003 2.262.243 2.803.721.541.478.812 1.3.813 2.466.014 9.512.02 14.268.032 23.781.007 4.917.903 8.447 2.691 10.608 1.788 2.16 4.74 3.297 8.853 3.452 4.114.153 7.071-.767 8.87-2.833 1.8-2.064 2.69-5.608 2.67-10.618l-.089-24.229c-.005-1.165.239-1.984.733-2.456.492-.472 1.414-.736 2.763-.79-.007-1.77-.01-2.655-.019-4.425-4.884-.008-7.326-.01-12.21-.014Zm107.997 36.014c-.068 6.506-.83 10.742-2.288 12.676-1.455 1.935-4.296 2.478-8.52 1.727-.904-.16-1.357-.24-2.261-.397l-.146-20.272c.352.036.527.054.876.092 1.934.204 3.311.944 4.128 2.229.818 1.284 1.238 3.376 1.258 6.256l.002.367c1.47.205 2.206.309 3.674.52-.062-8.971-.091-13.458-.152-22.428-1.471-.094-2.206-.14-3.676-.231l.002.407c.022 2.882-.365 4.885-1.154 5.996-.79 1.109-2.163 1.57-4.12 1.4-.351-.031-.526-.047-.876-.076-.052-7.423-.08-11.135-.134-18.556l1.587.036c4.181.098 7.021 1.078 8.517 2.977 1.496 1.897 2.352 5.44 2.566 10.596 1.565.115 2.346.173 3.912.292L397.504 176c-11.347-.057-17.02-.084-28.367-.13l.04 5.255c1.28.027 2.187.33 2.722.91.53.58.802 1.598.813 3.046l.259 35.278c.01 1.446-.246 2.422-.771 2.92-.524.497-1.428.64-2.71.44.017 2.101.025 3.153.04 5.254 11.586 2.011 17.373 3.151 28.929 5.698-.059-8.987-.09-13.48-.147-22.467-1.55-.213-2.325-.319-3.876-.527Zm22.355-8.202-2.258-.251-.114-20.959 2.393.071c2.72.081 4.579.907 5.575 2.496.997 1.59 1.504 4.41 1.522 8.43.018 3.96-.518 6.74-1.609 8.311-1.093 1.572-2.93 2.192-5.51 1.902Zm17.118 25.314.018 4.671c.004 1.199-.148 2.125-.459 2.776-.31.65-.723.908-1.237.779-1.03-.259-1.683-2.976-1.912-8.091-.054-1.19-.087-2.08-.111-2.66-.315-5.715-.981-9.75-2-12.097-1.017-2.347-2.693-4.02-5.03-5.022 2.823-.234 4.991-1.677 6.505-4.378 1.512-2.702 2.261-6.458 2.241-11.19-.023-5.921-1.22-10.366-3.592-13.214-2.372-2.847-6.032-4.226-10.979-4.254-5.936-.036-8.904-.052-14.838-.082.013 2.36.021 3.54.036 5.901 1.28.035 2.186.377 2.72 1.033.532.654.804 1.802.812 3.43l.24 39.689c.01 1.628-.247 2.719-.771 3.263-.524.545-1.424.681-2.701.418.013 2.36.021 3.542.036 5.902a550.93 550.93 0 0 1 15.601 3.75l-.03-6.265-.27-.061c-1.3-.296-2.21-.842-2.728-1.634-.52-.79-.784-2.025-.793-3.706l-.096-17.804a5.56 5.56 0 0 1 .537.002c.179.011.439.039.775.084 2.176.299 3.729 1.248 4.656 2.862.928 1.614 1.465 4.384 1.586 8.264.028.898.054 2.221.086 3.958.114 6.08.644 10.378 1.573 12.912.61 1.646 1.393 2.944 2.35 3.891.951.945 2.169 1.627 3.645 2.037 2.436.679 4.198.135 5.286-1.68 1.087-1.816 1.624-5.156 1.607-9.973l-.01-2.904c-1.1-.244-1.651-.365-2.753-.607ZM262.48 214.491c-.521-.479-.781-1.308-.783-2.492l-.002-28.832c0-1.142.248-1.944.744-2.411.493-.465 1.414-.719 2.766-.76l-.002-4.345c-6.019-.002-9.028-.002-15.046.001a4706.59 4706.59 0 0 0-.005 4.352c1.17.063 1.99.327 2.464.792.47.464.707 1.257.705 2.377l-.009 11.24c-3.57.018-5.355.032-8.925.074l.021-11.282c.003-1.125.233-1.922.696-2.39.463-.468 1.29-.748 2.481-.836l.007-4.326c-6.017.003-9.027.006-15.044.012l-.015 4.404c1.283-.006 2.188.226 2.716.692.527.468.79 1.3.786 2.496l-.079 29.142c-.004 1.196-.272 2.044-.803 2.544-.533.5-1.442.774-2.729.826-.007 1.762-.008 2.643-.013 4.406 6.045-.271 9.069-.37 15.117-.495l.007-4.357c-1.175-.043-1.999-.288-2.472-.747-.474-.456-.71-1.259-.707-2.404.008-5.213.013-7.82.023-13.033 3.572-.051 5.357-.068 8.929-.091l-.01 12.984c0 1.143-.233 1.944-.695 2.404-.466.461-1.296.74-2.494.844l-.004 4.353c6.048-.101 9.072-.114 15.12-.07l-.001-4.346c-1.31-.009-2.225-.252-2.744-.726Zm-121.683-10.96c-.072 10.002-.437 16.293-1.097 18.898-.657 2.607-1.841 4.071-3.55 4.38-1.731.315-2.902-.738-3.513-3.194-.612-2.454-.882-8.852-.81-19.171.07-10.288.43-16.73 1.077-19.305.647-2.575 1.836-3.868 3.568-3.908 1.71-.039 2.875 1.186 3.497 3.653.623 2.467.899 8.673.828 18.647Zm5.898-22.799c-1.126-2.005-2.544-3.519-4.235-4.524-1.69-1.008-3.67-1.524-5.943-1.523-2.27 0-4.253.52-5.946 1.59-1.694 1.068-3.11 2.704-4.248 4.905-1.067 2.061-1.85 4.956-2.334 8.67-.485 3.715-.749 8.903-.792 15.537-.042 6.605.154 11.726.59 15.337.436 3.612 1.174 6.337 2.217 8.167 1.13 1.98 2.53 3.332 4.196 4.07 1.665.739 3.633.858 5.904.395 2.247-.457 4.23-1.379 5.947-2.744 1.716-1.364 3.153-3.183 4.318-5.419 1.039-1.992 1.81-4.685 2.284-8.08.474-3.393.735-8.188.78-14.4.046-6.212-.145-10.962-.569-14.276-.425-3.313-1.147-5.884-2.17-7.705Zm-45.723 23.128-2.256.26c.041-8.645.061-12.97.104-21.615l2.393-.074c2.719-.083 4.57.624 5.551 2.088.981 1.464 1.46 4.11 1.439 7.964-.022 3.793-.587 6.549-1.695 8.297-1.11 1.752-2.956 2.784-5.536 3.08Zm16.89 22.975c-.007 1.064-.17 1.95-.489 2.664-.318.713-.734 1.125-1.25 1.234-1.034.218-1.663-1.976-1.844-6.556-.042-1.068-.067-1.868-.087-2.39-.261-5.112-.89-8.608-1.888-10.496-.999-1.887-2.664-3.02-4.995-3.379 2.832-.963 5.02-2.861 6.563-5.665 1.543-2.806 2.328-6.302 2.353-10.562.034-5.332-1.122-9.214-3.468-11.752-2.345-2.537-5.992-3.842-10.938-3.813-5.936.036-8.904.053-14.84.092l-.026 6.676c1.282-.044 2.186.283 2.711.97.524.687.783 1.926.776 3.72l-.177 43.68c-.008 1.793-.276 3.113-.804 3.963-.53.852-1.431 1.44-2.707 1.762l-.025 6.674c6.225-1.74 9.34-2.569 15.576-4.152l.032-6.273-.268.061c-1.3.299-2.206.166-2.718-.412-.513-.577-.764-1.737-.756-3.47l.09-18.362c.178-.058.36-.108.538-.149.179-.04.438-.085.775-.133 2.175-.31 3.721.212 4.633 1.529.912 1.319 1.42 3.85 1.506 7.587.018.866.032 2.144.046 3.824.052 5.874.54 9.83 1.447 11.828.596 1.294 1.37 2.149 2.319 2.569.949.42 2.164.445 3.644.09 2.444-.59 4.222-1.947 5.333-4.053 1.11-2.105 1.681-5.234 1.708-9.42l.016-2.522a628.77 628.77 0 0 0-2.761.492l-.026 4.144Zm-63.309-21.55c1.572-.202 2.359-.302 3.931-.501l.004-8.324c.003-4.71.403-8.128 1.201-10.22.799-2.09 2.096-3.153 3.894-3.216.553-.02.829-.03 1.382-.048l-.072 54.495c-.002 1.989-.282 3.46-.842 4.42-.559.96-1.551 1.648-2.978 2.062-.308.091-.462.135-.769.224-.003 2.979-.004 4.467-.005 7.446 6.949-2.248 10.429-3.323 17.396-5.374l.02-6.925c-.296.077-.443.117-.739.196-1.43.381-2.428.27-2.996-.348-.567-.619-.85-1.895-.845-3.816l.12-52.661 1.382-.047c1.796-.059 3.098.876 3.9 2.77.803 1.9 1.199 4.958 1.186 9.205-.008 3.05-.014 4.574-.023 7.625 1.561-.176 2.341-.263 3.903-.435l.088-25.58c-11.656.078-17.484.119-29.138.21v28.842Zm116.243-24.517c1.19.053 2.027.345 2.507.876.478.53.714 1.419.706 2.663l-.201 28.036c-.025 3.594-.37 5.918-1.03 6.985-.66 1.064-1.88 1.713-3.66 1.948-1.803.237-3.02-.095-3.655-1.016-.635-.921-.939-3.23-.911-6.919.084-11.51.127-17.266.21-28.777.01-1.304.247-2.23.713-2.78.465-.55 1.282-.87 2.453-.967l.07-5.008c-6.031.022-9.047.032-15.078.058l-.039 5.24c1.327-.027 2.258.24 2.794.796.536.557.797 1.526.788 2.913l-.21 28.297c-.044 5.852.815 9.916 2.576 12.143 1.759 2.228 4.69 2.976 8.791 2.355 4.101-.62 7.063-2.235 8.883-4.843 1.821-2.61 2.749-6.623 2.788-12.101l.184-26.5c.009-1.274.262-2.176.761-2.706.499-.526 1.424-.834 2.773-.925l.034-4.773c-4.886.014-7.327.021-12.211.037-.015 1.987-.023 2.98-.036 4.968Zm14.672 13.06c1.58-.075 2.37-.11 3.95-.18.014-2.101.022-3.15.035-5.253.019-2.972.434-5.12 1.242-6.432.805-1.312 2.109-1.974 3.908-1.994l1.384-.017-.215 34.821c-.008 1.271-.296 2.188-.863 2.752-.568.564-1.573.918-3.016 1.059l-.778.077-.03 4.715c7.039-.777 10.56-1.116 17.606-1.696l.024-4.55-.746.055c-1.444.11-2.453-.061-3.025-.518-.572-.456-.856-1.311-.85-2.562.078-13.696.117-20.545.193-34.241l1.384-.013c1.8-.018 3.102.609 3.905 1.87.803 1.262 1.199 3.291 1.184 6.095l-.027 5.032c1.568-.048 2.352-.07 3.92-.116.032-6.817.048-10.225.082-17.043-11.659.02-17.487.034-29.146.066l-.121 18.073M64.16 112.617l-13.3-82.832-35.103-10.004v13.2c3.199.822 5.458 2.1 6.776 3.83 1.319 1.721 1.979 4.344 1.979 7.873v85.945c0 3.531-.66 5.98-1.979 7.358-1.318 1.384-3.577 2.034-6.776 1.944v13.201h29.968v-12.355c-3.256-.092-5.544-.841-6.861-2.254-1.319-1.422-1.977-3.852-1.977-7.287V38.959l18.856 114.173h11.532L86.383 51.607v82.054c0 2.946-.59 4.998-1.768 6.159-1.178 1.17-3.227 1.797-6.144 1.88v11.432h36.364v-10.405c-3.255-.092-5.528-.735-6.819-1.934-1.292-1.206-1.935-3.264-1.935-6.166V63.949c0-2.798.616-4.613 1.851-5.442 1.235-.819 3.536-.872 6.903-.16v-10.33l-36.87-10.506-13.805 75.106" />
    <path fill="#fff"
        d="M81.136 150.465h31.032v-5.276c-2.625-.357-4.592-1.164-5.967-2.441-1.852-1.73-2.788-4.461-2.788-8.121V63.949c0-3.785.994-6.289 3.035-7.657 1.372-.91 3.223-1.256 5.72-1.05v-5.211l-32.11-9.152-16.075 87.454-15.486-96.449-30.073-8.57v7.691c2.764.983 4.853 2.386 6.23 4.186 1.698 2.221 2.525 5.325 2.525 9.493v85.945c0 4.28-.89 7.29-2.719 9.202-1.399 1.466-3.423 2.358-6.036 2.66v7.974h24.633v-7.244c-2.702-.409-4.725-1.36-6.144-2.881-1.813-1.953-2.693-4.93-2.693-9.105V38.959l5.297-.434 18.487 111.94h7.059l18.698-99.35 5.288.492v82.054c0 3.723-.838 6.359-2.561 8.058-1.26 1.249-3.023 2.048-5.352 2.418Zm36.365 5.334H75.803v-16.691l2.59-.073c2.999-.086 4.038-.804 4.343-1.108.3-.295.98-1.287.98-4.266V80.193L69.486 155.8H53.48L39.553 71.472v59.763c0 3.576.792 4.964 1.266 5.473.777.835 2.548 1.333 4.981 1.403l2.59.073v17.615h-35.3v-18.611l2.741.077c2.323.062 4.022-.332 4.773-1.12.467-.486 1.241-1.844 1.241-5.516V44.684c0-2.87-.493-5.032-1.428-6.253-.948-1.239-2.738-2.204-5.323-2.867l-2.003-.515V16.248l40.132 11.437 11.113 69.216L75.873 34.14l41.628 11.865v15.631l-3.217-.681c-3.919-.827-4.865-.232-4.875-.227-.18.12-.662.943-.662 3.221v70.678c0 2.064.386 3.561 1.089 4.218.355.328 1.57 1.116 5.075 1.215l2.59.073V155.8" />
    <path fill="#23356a"
        d="M150.527 138.647c-1.207 3.694-3.438 5.53-6.688 5.46-3.295-.074-5.547-2.035-6.752-5.93-1.207-3.893-1.826-13.62-1.859-29.128-.033-15.465.541-25.033 1.721-28.658 1.182-3.624 3.407-5.108 6.682-4.53 3.232.571 5.464 2.816 6.692 6.72 1.229 3.904 1.872 13.275 1.928 28.158.054 14.925-.519 24.213-1.724 27.908Zm12.472-60.042c-2.18-3.342-4.9-6.053-8.123-8.134-3.224-2.08-6.983-3.556-11.275-4.411-4.293-.855-8.024-.863-11.2.057-3.177.922-5.818 2.796-7.934 5.647-1.983 2.672-3.415 6.73-4.283 12.165-.868 5.436-1.303 13.214-1.303 23.278 0 10.02.436 17.881 1.312 23.524.876 5.642 2.319 10.041 4.332 13.17 2.182 3.39 4.872 5.899 8.066 7.554 3.192 1.653 6.952 2.452 11.278 2.452 4.282 0 8.048-.794 11.296-2.331 3.248-1.539 5.954-3.847 8.127-6.841 1.937-2.671 3.35-6.466 4.185-11.384.832-4.918 1.228-11.974 1.184-21.203-.042-9.228-.504-16.35-1.381-21.407-.879-5.056-2.304-9.102-4.281-12.136" />
    <path fill="#fff"
        d="M142.265 78.392c-1.054 0-2.029.52-2.78 2.824-.748 2.296-1.632 8.988-1.59 27.827.042 18.92.969 25.857 1.738 28.346 1.088 3.51 2.766 4.018 4.264 4.051 1.427.032 3.034-.373 4.095-3.621.764-2.342 1.66-8.938 1.592-27.071-.07-18.099-1.02-24.872-1.805-27.368-1.218-3.87-3.215-4.647-4.612-4.893a5.269 5.269 0 0 0-.902-.095Zm1.736 68.383c-.074 0-.148-.002-.221-.003-3.135-.07-7.281-1.48-9.24-7.805-1.297-4.186-1.943-13.97-1.979-29.912-.034-15.911.572-25.558 1.854-29.491 2.154-6.613 6.989-6.808 9.68-6.33 2.938.52 6.846 2.425 8.773 8.546 1.32 4.2 1.99 13.668 2.05 28.948.057 15.34-.55 24.743-1.857 28.745v-.001c-2.054 6.299-6.462 7.303-9.06 7.303Zm-6.336-78.682c-1.665 0-3.174.195-4.521.586-2.63.762-4.768 2.292-6.535 4.673-1.721 2.32-2.998 6.02-3.792 10.997-.842 5.276-1.269 12.966-1.269 22.858 0 9.865.43 17.642 1.281 23.114.816 5.26 2.142 9.344 3.939 12.136 1.907 2.964 4.28 5.194 7.05 6.628 2.76 1.431 6.14 2.155 10.051 2.155 3.831 0 7.247-.697 10.156-2.075 2.79-1.321 5.182-3.34 7.108-5.997 1.711-2.357 2.96-5.81 3.715-10.263.804-4.741 1.19-11.721 1.148-20.745-.043-9.024-.495-16.076-1.344-20.963-.813-4.68-2.12-8.425-3.887-11.136-1.954-2.997-4.424-5.47-7.334-7.35-2.939-1.896-6.422-3.255-10.351-4.036-1.948-.388-3.757-.582-5.415-.582Zm6.204 88.48c-4.773 0-8.98-.925-12.504-2.752-3.608-1.868-6.664-4.72-9.082-8.478-2.203-3.423-3.792-8.202-4.726-14.203-.89-5.743-1.342-13.795-1.342-23.933 0-10.172.449-18.146 1.337-23.699.943-5.913 2.504-10.275 4.773-13.333 2.454-3.307 5.594-5.534 9.334-6.619 3.566-1.035 7.644-1.072 12.462-.112 4.591.913 8.696 2.523 12.202 4.785 3.546 2.29 6.544 5.291 8.908 8.919 2.165 3.32 3.738 7.74 4.676 13.137.913 5.25 1.377 12.398 1.422 21.851.044 9.46-.356 16.545-1.222 21.66-.894 5.27-2.46 9.477-4.656 12.504-2.459 3.39-5.535 5.976-9.143 7.685-3.63 1.718-7.813 2.588-12.439 2.588" />
    <path fill="#23356a"
        d="m214.43 77.775.031 7.34c2.279.28 3.882.845 4.811 1.708.927.862 1.395 2.213 1.401 4.058.052 13.202.104 26.403.158 39.604a3789.616 3789.616 0 0 1-19.486-53.941c-10.332-1.075-15.489-1.716-25.782-3.199l.038 7.767c2.438.317 4.164.945 5.174 1.89 1.009.946 1.521 2.46 1.53 4.553.086 16.98.17 33.961.255 50.941.01 2.093-.485 3.547-1.487 4.37-1.002.825-2.724 1.22-5.164 1.177l.038 7.766c8.993.034 13.489.05 22.482.075-.013-2.997-.021-4.495-.036-7.493-2.272-.14-3.88-.63-4.825-1.471-.948-.841-1.425-2.239-1.435-4.19l-.232-46.415a4679.668 4679.668 0 0 0 21.755 59.608c6.733.014 10.099.021 16.832.032l-.203-60.535c-.005-1.9.474-3.212 1.44-3.935.966-.724 2.74-1.07 5.323-1.061l-.02-7.141c-9.047-.448-13.568-.75-22.599-1.508" />
    <path fill="#fff"
        d="M178.601 149.152c6.466.024 10.692.039 17.15.057l-.012-2.477c-1.667-.35-2.967-.952-3.943-1.819-1.532-1.362-2.316-3.438-2.33-6.17l-.302-60.868a543.06 543.06 0 0 1-10.919-1.452l.012 2.474c1.866.468 3.296 1.183 4.34 2.158 1.562 1.461 2.36 3.642 2.375 6.486l.255 50.942c.014 2.921-.812 5.089-2.459 6.442-1.041.855-2.421 1.399-4.18 1.64Zm36.908.107 12.303.024-.193-57.855c-.008-2.78.834-4.825 2.508-6.079 1.022-.765 2.402-1.242 4.248-1.458l-.007-2.072a508.022 508.022 0 0 1-17.257-1.147l.008 2.221c1.701.432 3.009 1.086 3.968 1.976 1.486 1.383 2.245 3.402 2.253 6.003l.216 54.695-5.227-14.158a3813.801 3813.801 0 0 1-18.938-52.389c-3.759-.395-6.83-.736-9.796-1.093l4.818 13.49a4681.62 4681.62 0 0 0 21.096 57.842Zm17.655 5.366-21.363-.04-.644-1.732a4739.994 4739.994 0 0 1-16.51-45.006l.153 30.87c.005 1.088.207 1.915.539 2.21.173.153.909.66 3.218.802l2.492.154.062 12.674-2.688-.006c-8.995-.026-13.492-.042-22.486-.075l-2.644-.01-.066-13.138 2.728.048c2.545.039 3.301-.467 3.426-.57.24-.198.519-.918.512-2.298l-.254-50.94c-.007-1.281-.25-2.21-.686-2.619-.265-.246-1.158-.862-3.697-1.193l-2.31-.301-.063-13.191 3.061.441c10.297 1.486 15.337 2.111 25.677 3.186l1.679.174.561 1.592a3600.467 3600.467 0 0 0 14.243 39.672l-.097-24.438c-.004-1.036-.199-1.788-.552-2.115-.176-.164-.938-.721-3.319-1.016l-2.33-.287-.055-12.6 2.902.244c9.03.759 13.448 1.054 22.507 1.502l2.528.125.033 12.359-2.684-.012h-.1c-2.876 0-3.585.506-3.614.528-.104.078-.375.552-.371 1.792l.212 63.214" />
    <path fill="#23356a"
        d="M398.152 75.781c2.253-.281 3.832-.054 4.744.702.912.756 1.364 2.208 1.36 4.345-.033 15.308-.065 30.616-.099 45.923-6.157-19.008-12.408-37.98-18.936-56.866-10.25 1.826-15.39 2.636-25.69 4.052l-.039 7.711c2.44-.304 4.159-.115 5.161.588 1.002.704 1.498 2.119 1.487 4.245l-.25 51.766c-.01 2.126-.522 3.629-1.531 4.501-1.011.872-2.735 1.327-5.176 1.367l-.04 7.71c8.994-.032 13.492-.05 22.484-.09.012-3.219.018-4.827.032-8.046-2.268-.07-3.871-.533-4.808-1.384-.939-.85-1.403-2.296-1.394-4.346.072-16.258.146-32.515.219-48.771 7.303 20.739 14.39 41.557 21.172 62.473 6.73-.033 10.095-.052 16.825-.09.022-24.15.046-48.299.07-72.448.002-2.274.48-3.964 1.434-5.086.955-1.12 2.702-2.008 5.239-2.676v-8.734c-8.87 2.082-13.32 3.046-22.24 4.818l-.024 8.336" />
    <path fill="#fff"
        d="m373.367 74.61 4.824 13.691c7.529 21.379 14.273 41.252 20.59 60.683l12.227-.067.068-69.797c.001-2.908.699-5.2 2.07-6.812 1.022-1.199 2.538-2.159 4.602-2.91v-3.411c-6.232 1.445-10.375 2.337-16.913 3.646l-.01 3.407c1.566.132 2.812.593 3.772 1.39 1.572 1.302 2.332 3.398 2.324 6.406l-.134 62.684-5.167-15.948c-7.125-21.993-12.772-38.977-18.177-54.663-3.848.678-6.978 1.21-10.076 1.702Zm-11.531 71.953-.013 2.585c6.456-.023 10.681-.04 17.148-.068l.01-2.996c-1.652-.321-2.948-.917-3.924-1.804-1.517-1.375-2.28-3.505-2.266-6.333l.282-63.29c-3.352.531-6.692 1.02-10.888 1.604l-.012 2.594c1.668.077 2.974.472 4.01 1.197 1.756 1.233 2.637 3.4 2.622 6.441l-.249 51.766c-.015 2.924-.84 5.113-2.456 6.506-1.05.907-2.457 1.502-4.264 1.798Zm-5.372 7.938.063-13.008 2.609-.044c2.504-.042 3.296-.561 3.48-.72.139-.121.597-.658.607-2.496l.249-51.766c.007-1.384-.265-1.962-.36-2.055-.001-.001-.683-.444-3.29-.119l-3.013.375.066-13.056 2.292-.316c10.329-1.421 15.352-2.215 25.585-4.036l2.244-.4.745 2.153c4.275 12.363 8.664 25.431 13.786 41.051l.061-29.241c.004-1.831-.395-2.288-.399-2.292-.004 0-.6-.367-2.708-.104l-3.006.376.04-13.547 2.14-.425c8.929-1.775 13.277-2.716 22.15-4.8l3.276-.771v14.159l-1.989.522c-2.612.687-3.556 1.439-3.885 1.826-.52.612-.796 1.773-.798 3.357l-.073 75.097-21.424.116-.603-1.853a2500.316 2500.316 0 0 0-16.037-47.777l-.148 33.264c-.007 1.389.263 2.129.515 2.358.114.104.801.623 3.102.695l2.595.079-.055 13.286-2.644.012c-8.994.04-13.49.058-22.485.091l-2.688.01" />
    <path fill="#23356a"
        d="m298.225 106.603.068-27.136c-18.61.809-37.256.829-55.869.061.027 10.845.04 16.268.065 27.113 3.019.08 4.528.114 7.547.171l-.013-7.927c-.008-4.485.749-7.69 2.276-9.618 1.525-1.927 4.012-2.851 7.46-2.804 1.06.014 1.589.021 2.649.032.01 17.706.023 35.413.035 53.118.001 1.943-.532 3.3-1.604 4.078-1.072.778-2.979 1.165-5.722 1.158l-1.478-.005.01 7.136c13.364.01 20.046.008 33.41-.001l.012-7.139-1.414.004c-2.745.01-4.66-.377-5.754-1.156-1.091-.777-1.639-2.136-1.638-4.077.015-17.711.03-35.422.043-53.132a588.28 588.28 0 0 0 2.652-.036c3.448-.055 5.945.881 7.49 2.841 1.547 1.961 2.317 5.15 2.307 9.567l-.014 7.932c2.993-.06 4.489-.096 7.482-.18" />
    <path fill="#fff"
        d="M256.313 149.315c10.795.006 17.295.006 28.083 0l.004-1.827c-2.716-.113-4.653-.639-6.043-1.627-1.26-.898-2.76-2.712-2.757-6.253l.045-55.765 5.275-.067c4.253-.061 7.553 1.23 9.625 3.857 1.947 2.466 2.89 6.136 2.88 11.222l-.01 5.204 2.149-.052.056-21.76a664.25 664.25 0 0 1-50.521.053l.052 21.741c.757.019 1.461.035 2.214.051l-.009-5.195c-.01-5.161.924-8.85 2.852-11.286 2.05-2.59 5.277-3.89 9.587-3.815l5.278.057.036 55.758c.002 2.836-.906 4.934-2.704 6.238-1.388 1.006-3.342 1.536-6.094 1.646Zm13.767 5.338c-4.921 0-9.87-.002-16.43-.006l-2.66-.003-.02-12.472 4.154.01h.073c3.026 0 3.926-.54 4.078-.65.32-.232.502-.93.501-1.917l-.055-50.486c-2.626-.048-4.349.551-5.332 1.792-.78.986-1.708 3.167-1.7 7.959l.02 10.65-2.722-.053c-3.028-.057-4.542-.09-7.567-.17l-2.59-.068-.078-32.491 2.784.115c18.461.764 37.184.742 55.641-.06l2.79-.122-.083 32.516-2.585.071c-3 .084-4.5.12-7.502.18l-2.726.056.021-10.659c.008-4.71-.939-6.901-1.735-7.908-1.002-1.273-2.792-1.87-5.356-1.829l-.028.001-.04 50.503c0 .461.05 1.57.518 1.905.217.154 1.161.66 4.124.66h.074l4.094-.013-.023 12.48-2.66.001c-6.803.006-11.877.008-16.98.008" />
    <path fill="#23356a"
        d="M314.64 121.555c2.827-12.174 4.243-18.3 7.077-30.659a7358.784 7358.784 0 0 1 6.632 30.192c-5.482.212-8.224.305-13.709.467Zm32.997 12.637a7.587 7.587 0 0 0-.126-.55c-4.768-18.885-9.584-37.758-14.52-56.6-6.522.629-9.787.903-16.319 1.37-5.224 19.7-10.49 39.39-15.79 59.07-.043.142-.109.37-.194.685-1.128 4.349-3.661 6.564-7.605 6.65-.006 2.863-.008 4.294-.015 7.156 9.33-.008 13.993-.014 23.321-.032.012-2.912.018-4.366.028-7.277a7.59 7.59 0 0 0-.802.059 7.137 7.137 0 0 1-.675.058c-1.672.015-2.924-.257-3.759-.814-.832-.558-1.248-1.399-1.244-2.526.002-.281.044-.652.132-1.11.087-.459.262-1.2.522-2.226.862-3.605 1.293-5.41 2.156-9.03 6.846-.15 10.269-.239 17.112-.447.728 3.772 1.093 5.661 1.821 9.45.04.253.14.638.25 1.13.183.803.253 1.401.251 1.725-.006 1.262-.428 2.142-1.266 2.638-.836.497-2.52.832-5.05 1.001l-.03 7.35c12-.027 18-.043 30-.086.016-3.065.024-4.6.038-7.667l-.772.014c-3.425.054-5.914-3.302-7.464-9.991" />
    <path fill="#fff"
        d="M321.667 103.023c-1.183 5.129-2.248 9.73-3.646 15.761 2.486-.077 4.524-.147 7.044-.24-1.31-6.01-2.305-10.553-3.398-15.521Zm-25.922 44.116-.005 2.166c6.79-.006 11.195-.013 17.993-.025l.007-1.868c-1.653-.119-2.983-.523-4.039-1.227-1.574-1.053-2.437-2.741-2.43-4.753 0-.452.058-.98.18-1.607.092-.485.277-1.278.556-2.377l2.622-10.995 2.059-.044c6.837-.149 10.256-.24 17.09-.446l2.267-.07 2.254 11.682c.034.209.078.384.129.6l.103.441c.148.65.32 1.579.317 2.328-.016 2.963-1.617 4.355-2.572 4.92-.87.517-2.07.879-3.753 1.12l-.011 2.265c9.43-.022 15.23-.038 24.67-.07l.011-2.542c-3.808-.929-6.546-4.901-8.156-11.844l-.021-.106a4.352 4.352 0 0 0-.076-.332c-5.357-21.216-9.805-38.576-13.955-54.443-3.346.316-5.862.536-8.8.765l2.136 9.643c2.658 12 3.984 18.035 6.632 30.201l.678 3.108-3.18.123c-5.491.213-8.238.305-13.731.468l-3.46.103.783-3.371c2.825-12.172 4.24-18.296 7.076-30.652l2.192-9.556c-.804.061-1.647.125-2.551.19a16675.968 16675.968 0 0 1-15.303 57.242 29.72 29.72 0 0 0-.201.701c-1.152 4.45-3.78 7.315-7.51 8.262Zm-5.35 7.504.029-12.435 2.601-.057c1.927-.043 4.038-.628 5.079-4.652.108-.391.181-.643.228-.799a16154.585 16154.585 0 0 0 15.76-58.972l.49-1.84 1.898-.136c6.535-.468 9.724-.736 16.255-1.364l2.26-.219.576 2.196c4.316 16.479 8.932 34.471 14.525 56.624.039.136.095.367.15.648.691 2.971 2.225 7.879 4.78 7.879h.033l3.494-.056-.065 13.035-2.644.008c-12.001.041-18.001.058-30.004.085l-2.685.007.054-12.518 2.479-.166c2.581-.172 3.53-.49 3.788-.598a1.73 1.73 0 0 0 .039-.394c-.002-.086-.039-.472-.186-1.126l-.092-.398c-.088-.371-.156-.674-.19-.895l-1.378-7.139c-4.781.143-7.976.226-12.808.334l-1.676 7.028c-.252.992-.416 1.68-.496 2.106-.084.432-.085.604-.085.612 0 .184.025.278.033.299.119.07.711.413 2.279.375.07-.004.203-.019.381-.04a10.39 10.39 0 0 1 1.095-.079l2.7-.024-.045 12.63-2.652.006c-9.33.017-13.995.024-23.324.032l-2.676.003" />
    <path fill="#23356a"
        d="m452.365 105.19 8.91-50.515 8.661 47.098Zm52.054 33.575c-4.4.206-7.618-5.601-9.652-17.293-.055-.381-.111-.697-.166-.95l-18.973-93.215-20.872 9.805-19.963 94.245c-.054.21-.137.548-.248 1.018-1.43 6.412-4.674 9.758-9.734 10.093v10.03h29.945v-11.423a8.236 8.236 0 0 0-1.03.132c-.413.073-.7.114-.866.121-2.145.099-3.755-.261-4.827-1.076-1.07-.805-1.609-2.064-1.609-3.783 0-.429.055-.997.165-1.704.111-.706.331-1.853.66-3.444l2.723-14.138 21.943-3.219 2.393 15.49c.055.417.164 1.038.33 1.865.22 1.366.331 2.32.331 2.861 0 2.107-.538 3.595-1.609 4.46-1.072.86-3.23 1.484-6.476 1.87v11.987h38.527V138.72l-.992.045" />
    <path fill="#fff"
        d="m461.328 69.716-5.664 32.116 11.17-2.173Zm-12.263 38.833 12.154-68.917 11.816 64.255Zm20.486 41.282h33.192v-8.535c-7.498-1.519-9.807-14.79-10.604-19.367-.056-.38-.099-.638-.144-.844l-18.303-89.924-16.601 7.799-19.688 92.95c-.08.314-.158.631-.262 1.07-1.733 7.777-5.836 10.765-9.664 11.753v5.098h24.612v-5.82c-2.381-.012-4.241-.551-5.669-1.635-1.21-.908-2.663-2.679-2.663-5.907 0-.585.066-1.278.199-2.121.112-.72.328-1.856.681-3.567l3.074-15.964 26.436-3.874 2.797 18.105c.057.443.16 1.001.308 1.748.267 1.648.383 2.69.383 3.384 0 2.941-.875 5.14-2.599 6.533-1.179.946-2.95 1.624-5.485 2.095Zm38.525 5.333h-43.859v-17.021l2.352-.28c3.908-.466 4.954-1.168 5.123-1.304.384-.31.61-1.18.61-2.379 0-.179-.03-.772-.297-2.44a29.418 29.418 0 0 1-.341-1.947l-1.98-12.806-17.452 2.558-2.365 12.28c-.323 1.564-.536 2.668-.642 3.348-.117.738-.134 1.128-.134 1.296 0 1.243.394 1.539.544 1.651.325.247 1.15.633 3.102.544.091-.008.271-.039.514-.083.542-.096.992-.152 1.38-.169l2.792-.133v16.885h-35.279v-15.192l2.492-.165c2.404-.159 5.779-1.163 7.307-8.014.122-.524.21-.884.269-1.108l20.21-95.424 25.142-11.812 19.65 96.54c.058.268.125.643.191 1.095 2.458 14.124 5.892 15.067 6.891 15.017l3.78-.176v19.239" />
    <path fill="#23356a"
        d="m64.16 112.617-13.3-82.832-35.103-10.004v13.2c3.199.822 5.458 2.1 6.776 3.83 1.319 1.721 1.979 4.344 1.979 7.873v85.945c0 3.531-.66 5.98-1.979 7.358-1.318 1.384-3.577 2.034-6.776 1.944v13.201h29.968v-12.355c-3.256-.092-5.544-.841-6.861-2.254-1.319-1.422-1.977-3.852-1.977-7.287V38.959l18.856 114.173h11.532L86.383 51.607v82.054c0 2.946-.59 4.998-1.768 6.159-1.178 1.17-3.227 1.797-6.144 1.88v11.432h36.364v-10.405c-3.255-.092-5.528-.735-6.819-1.934-1.292-1.206-1.935-3.264-1.935-6.166V63.949c0-2.798.616-4.613 1.851-5.442 1.235-.819 3.536-.872 6.903-.16v-10.33l-36.87-10.506-13.805 75.106M150.527 138.647c-1.207 3.694-3.438 5.53-6.688 5.46-3.295-.074-5.547-2.035-6.752-5.93-1.207-3.893-1.826-13.62-1.859-29.128-.033-15.465.541-25.033 1.721-28.658 1.182-3.624 3.407-5.108 6.682-4.53 3.232.571 5.464 2.816 6.692 6.72 1.229 3.904 1.872 13.275 1.928 28.158.054 14.925-.519 24.213-1.724 27.908Zm12.472-60.042c-2.18-3.342-4.9-6.053-8.123-8.134-3.224-2.08-6.983-3.556-11.275-4.411-4.293-.855-8.024-.863-11.2.057-3.177.922-5.818 2.796-7.934 5.647-1.983 2.672-3.415 6.73-4.283 12.165-.868 5.436-1.303 13.214-1.303 23.278 0 10.02.436 17.881 1.312 23.524.876 5.642 2.319 10.041 4.332 13.17 2.182 3.39 4.872 5.899 8.066 7.554 3.192 1.653 6.952 2.452 11.278 2.452 4.282 0 8.048-.794 11.296-2.331 3.248-1.539 5.954-3.847 8.127-6.841 1.937-2.671 3.35-6.466 4.185-11.384.832-4.918 1.228-11.974 1.184-21.203-.042-9.228-.504-16.35-1.381-21.407-.879-5.056-2.304-9.102-4.281-12.136M214.43 77.775l.031 7.34c2.279.28 3.882.845 4.811 1.708.927.862 1.395 2.213 1.401 4.058.052 13.202.104 26.403.158 39.604a3789.616 3789.616 0 0 1-19.486-53.941c-10.332-1.075-15.489-1.716-25.782-3.199l.038 7.767c2.438.317 4.164.945 5.174 1.89 1.009.946 1.521 2.46 1.53 4.553.086 16.98.17 33.961.255 50.941.01 2.093-.485 3.547-1.487 4.37-1.002.825-2.724 1.22-5.164 1.177l.038 7.766c8.993.034 13.489.05 22.482.075-.013-2.997-.021-4.495-.036-7.493-2.272-.14-3.88-.63-4.825-1.471-.948-.841-1.425-2.239-1.435-4.19l-.232-46.415a4679.668 4679.668 0 0 0 21.755 59.608c6.733.014 10.099.021 16.832.032l-.203-60.535c-.005-1.9.474-3.212 1.44-3.935.966-.724 2.74-1.07 5.323-1.061l-.02-7.141c-9.047-.448-13.568-.75-22.599-1.508M398.152 75.781c2.253-.281 3.832-.054 4.744.702.912.756 1.364 2.208 1.36 4.345-.033 15.308-.065 30.616-.099 45.923-6.157-19.008-12.408-37.98-18.936-56.866-10.25 1.826-15.39 2.636-25.69 4.052l-.039 7.711c2.44-.304 4.159-.115 5.161.588 1.002.704 1.498 2.119 1.487 4.245l-.25 51.766c-.01 2.126-.522 3.629-1.531 4.501-1.011.872-2.735 1.327-5.176 1.367l-.04 7.71c8.994-.032 13.492-.05 22.484-.09.012-3.219.018-4.827.032-8.046-2.268-.07-3.871-.533-4.808-1.384-.939-.85-1.403-2.296-1.394-4.346.072-16.258.146-32.515.219-48.771 7.303 20.739 14.39 41.557 21.172 62.473 6.73-.033 10.095-.052 16.825-.09.022-24.15.046-48.299.07-72.448.002-2.274.48-3.964 1.434-5.086.955-1.12 2.702-2.008 5.239-2.676v-8.734c-8.87 2.082-13.32 3.046-22.24 4.818l-.024 8.336M298.225 106.603l.068-27.136c-18.61.809-37.256.829-55.869.061.027 10.845.04 16.268.065 27.113 3.019.08 4.528.114 7.547.171l-.013-7.927c-.008-4.485.749-7.69 2.276-9.618 1.525-1.927 4.012-2.851 7.46-2.804 1.06.014 1.589.021 2.649.032.01 17.706.023 35.413.035 53.118.001 1.943-.532 3.3-1.604 4.078-1.072.778-2.979 1.165-5.722 1.158l-1.478-.005.01 7.136c13.364.01 20.046.008 33.41-.001l.012-7.139-1.414.004c-2.745.01-4.66-.377-5.754-1.156-1.091-.777-1.639-2.136-1.638-4.077.015-17.711.03-35.422.043-53.132a588.28 588.28 0 0 0 2.652-.036c3.448-.055 5.945.881 7.49 2.841 1.547 1.961 2.317 5.15 2.307 9.567l-.014 7.932c2.993-.06 4.489-.096 7.482-.18M314.64 121.555c2.827-12.174 4.243-18.3 7.077-30.659a7358.784 7358.784 0 0 1 6.632 30.192c-5.482.212-8.224.305-13.709.467Zm32.997 12.637a7.587 7.587 0 0 0-.126-.55c-4.768-18.885-9.584-37.758-14.52-56.6-6.522.629-9.787.903-16.319 1.37-5.224 19.7-10.49 39.39-15.79 59.07-.043.142-.109.37-.194.685-1.128 4.349-3.661 6.564-7.605 6.65-.006 2.863-.008 4.294-.015 7.156 9.33-.008 13.993-.014 23.321-.032.012-2.912.018-4.366.028-7.277a7.59 7.59 0 0 0-.802.059 7.137 7.137 0 0 1-.675.058c-1.672.015-2.924-.257-3.759-.814-.832-.558-1.248-1.399-1.244-2.526.002-.281.044-.652.132-1.11.087-.459.262-1.2.522-2.226.862-3.605 1.293-5.41 2.156-9.03 6.846-.15 10.269-.239 17.112-.447.728 3.772 1.093 5.661 1.821 9.45.04.253.14.638.25 1.13.183.803.253 1.401.251 1.725-.006 1.262-.428 2.142-1.266 2.638-.836.497-2.52.832-5.05 1.001l-.03 7.35c12-.027 18-.043 30-.086.016-3.065.024-4.6.038-7.667l-.772.014c-3.425.054-5.914-3.302-7.464-9.991M452.365 105.19l8.91-50.515 8.661 47.098Zm52.054 33.575c-4.4.206-7.618-5.601-9.652-17.293-.055-.381-.111-.697-.166-.95l-18.973-93.215-20.872 9.805-19.963 94.245c-.054.21-.137.548-.248 1.018-1.43 6.412-4.674 9.758-9.734 10.093v10.03h29.945v-11.423a8.236 8.236 0 0 0-1.03.132c-.413.073-.7.114-.866.121-2.145.099-3.755-.261-4.827-1.076-1.07-.805-1.609-2.064-1.609-3.783 0-.429.055-.997.165-1.704.111-.706.331-1.853.66-3.444l2.723-14.138 21.943-3.219 2.393 15.49c.055.417.164 1.038.33 1.865.22 1.366.331 2.32.331 2.861 0 2.107-.538 3.595-1.609 4.46-1.072.86-3.23 1.484-6.476 1.87v11.987h38.527V138.72l-.992.045" />
</svg>